<svg width="120" height="26" viewBox="0 0 120 26" fill="none" xmlns="http://www.w3.org/2000/svg">
<path fill-rule="evenodd" clip-rule="evenodd" d="M40.734 19.8165V0.00229649H47.3983C48.4883 -0.0187714 49.5765 0.105193 50.6355 0.371095C51.4297 0.566998 52.1784 0.921685 52.8389 1.41486C53.3915 1.84734 53.8258 2.41901 54.0999 3.07446C54.3745 3.77033 54.5106 4.51564 54.4999 5.26637C54.5012 5.71967 54.4338 6.17042 54.2999 6.6024C54.1606 7.03344 53.9508 7.437 53.6795 7.79577C53.3768 8.18599 53.0166 8.52525 52.6118 8.80127C52.1328 9.12602 51.6142 9.38455 51.0694 9.57018C53.7202 10.1825 55.0456 11.6531 55.0456 13.9818C55.0533 14.7827 54.895 15.5761 54.5812 16.3095C54.2718 17.022 53.808 17.6526 53.2253 18.1534C52.5746 18.7011 51.8262 19.1135 51.022 19.3677C50.0541 19.6746 49.045 19.8225 48.0322 19.8061L40.734 19.8165ZM44.3271 8.5786H47.1983C48.4152 8.5786 49.3406 8.35245 49.9745 7.88275C50.6084 7.41306 50.9202 6.69982 50.9202 5.70476C50.9202 4.7097 50.6355 3.93731 50.066 3.49892C49.4965 3.06054 48.6084 2.84135 47.3983 2.84135H44.3271V8.5786ZM44.3271 16.9392V11.1289H47.9576C48.5025 11.1177 49.0464 11.1821 49.5745 11.3202C49.9724 11.426 50.3451 11.6142 50.6694 11.8734C50.9471 12.1081 51.1628 12.4109 51.2965 12.7537C51.434 13.1222 51.5019 13.5142 51.4965 13.9088C51.4983 14.3047 51.4376 14.6983 51.3169 15.0743C51.1967 15.4376 50.9946 15.7667 50.727 16.0346C50.4183 16.333 50.049 16.5575 49.6457 16.6922C49.105 16.8707 48.5389 16.9542 47.9711 16.9392H44.3271Z" fill="#121A20"/>
<path fill-rule="evenodd" clip-rule="evenodd" d="M65.9335 7.02621C65.1996 6.74195 64.4227 6.59986 63.6404 6.60684C62.7154 6.58782 61.797 6.77285 60.9444 7.14996C60.1885 7.48845 59.508 7.98832 58.9462 8.61778C58.3919 9.24843 57.9642 9.98958 57.6883 10.7972C57.3924 11.6544 57.2438 12.5599 57.2493 13.4715C57.229 14.5662 57.3999 15.6556 57.7538 16.6856C58.0555 17.554 58.525 18.3474 59.1329 19.0162C59.7155 19.6398 60.4194 20.1241 61.1967 20.4359C62.017 20.7615 62.8878 20.9247 63.7649 20.9172C64.2461 20.9154 64.7266 20.8786 65.203 20.8072C65.6994 20.7344 66.1877 20.61 66.6607 20.4359C67.1441 20.2586 67.6059 20.022 68.0366 19.7312C68.4814 19.4321 68.8811 19.0648 69.2224 18.6416L68.2921 17.4247C68.228 17.3305 68.1453 17.2519 68.0497 17.1944C67.9487 17.1387 67.8361 17.1103 67.7221 17.1119C67.5058 17.1185 67.2948 17.1837 67.1095 17.3009C66.8998 17.4281 66.6542 17.5691 66.3757 17.7203C66.0607 17.8906 65.7318 18.0309 65.393 18.1397C64.9608 18.2762 64.511 18.3411 64.0597 18.3322C63.1209 18.378 62.2058 18.0147 61.5308 17.3284C60.8953 16.6615 60.5295 15.6143 60.4334 14.1865H68.6229C68.7455 14.1915 68.8678 14.1716 68.9833 14.1281C69.0771 14.0872 69.1562 14.0162 69.2093 13.9253C69.2732 13.803 69.3133 13.6686 69.3272 13.53C69.3491 13.3211 69.3589 13.111 69.3567 12.9009C69.372 11.9907 69.2276 11.0854 68.9308 10.23C68.6742 9.49 68.2699 8.8161 67.745 8.2534C67.2326 7.71195 66.6146 7.2933 65.9335 7.02621ZM61.5243 9.83809C62.1128 9.26279 62.8997 8.96477 63.7027 9.01309L63.6863 9.00278C64.1174 8.99139 64.5457 9.07939 64.9409 9.26059C65.2791 9.41751 65.5792 9.65252 65.8188 9.94809C66.055 10.2433 66.2312 10.586 66.3364 10.9553C66.4496 11.3534 66.5059 11.767 66.5035 12.1825H60.5186C60.6043 11.3077 60.957 10.4854 61.5243 9.83809Z" fill="#121A20"/>
<path fill-rule="evenodd" clip-rule="evenodd" d="M82.0976 20.7013H83.6697L83.6661 11.9852C83.6754 11.2512 83.5537 10.521 83.3064 9.82584C83.085 9.19051 82.7259 8.60662 82.2523 8.1121C81.7765 7.63257 81.1989 7.25516 80.5579 7.00502C79.8352 6.73033 79.0623 6.59519 78.2843 6.60743C76.046 6.56133 73.8765 7.34538 72.2333 8.79417L72.8701 9.86011C72.9738 10.0307 73.1149 10.178 73.2838 10.292C73.4602 10.4138 73.674 10.4764 73.8918 10.4702C74.1651 10.4721 74.4342 10.406 74.6724 10.2783C74.9063 10.1549 75.1653 10.0109 75.4423 9.85326C75.7557 9.68166 76.0858 9.53932 76.428 9.42825C76.8865 9.29231 77.3653 9.22864 77.8454 9.23974C78.5229 9.1978 79.1839 9.44973 79.6441 9.92524C80.0543 10.3617 80.2593 11.0472 80.2593 11.9817V12.7975C78.8634 12.7706 77.4692 12.9065 76.1078 13.2019C75.1641 13.4073 74.2606 13.7543 73.4313 14.2302C72.8372 14.5633 72.3419 15.0351 71.9923 15.6012C71.7147 16.0751 71.5663 16.6077 71.5606 17.1504C71.5483 17.711 71.6547 18.2682 71.8736 18.7887C72.0652 19.24 72.3631 19.6434 72.7442 19.9678C73.1329 20.2921 73.5888 20.535 74.0824 20.6807C74.6334 20.8427 75.2074 20.9224 75.784 20.9172C76.2596 20.9208 76.7344 20.8795 77.2015 20.7938C77.6152 20.7169 78.0184 20.595 78.403 20.4305C78.7889 20.2638 79.1574 20.063 79.5038 19.8307C79.8783 19.572 80.2385 19.2951 80.5831 19.0012L80.8961 19.9849C80.95 20.2228 81.1033 20.4295 81.3206 20.5573C81.5636 20.6645 81.8302 20.7139 82.0976 20.7013ZM76.8736 18.6208C77.206 18.6231 77.5378 18.5921 77.8634 18.5282C78.1593 18.4684 78.4468 18.3752 78.7196 18.2506C78.9953 18.1228 79.2568 17.9689 79.5002 17.7913C79.7672 17.5932 80.0196 17.3779 80.2557 17.147V14.8265C79.3991 14.8133 78.543 14.8741 77.6979 15.0082C77.1298 15.0966 76.576 15.2544 76.0502 15.4778C75.6973 15.6203 75.3906 15.8498 75.1617 16.1427C74.9905 16.3886 74.8991 16.6771 74.8991 16.9722C74.8506 17.4539 75.0553 17.9274 75.4459 18.2369C75.8659 18.5082 76.3667 18.6429 76.8736 18.6208Z" fill="#121A20"/>
<path fill-rule="evenodd" clip-rule="evenodd" d="M90.8907 6.60568C91.4537 6.6029 92.0152 6.66303 92.5645 6.78491C93.0626 6.89817 93.5435 7.07554 93.9947 7.31244H97.9803V8.5366C97.9915 8.7112 97.9338 8.88331 97.8191 9.0168C97.6662 9.15367 97.4724 9.23792 97.2668 9.25689L96.0218 9.48346C96.114 9.72012 96.1841 9.96463 96.231 10.2139C96.2827 10.4825 96.308 10.7555 96.3065 11.0289C96.3159 11.662 96.175 12.2885 95.8949 12.8583C95.6246 13.3992 95.2371 13.8749 94.7596 14.2516C94.248 14.6483 93.6667 14.9487 93.0447 15.1376C92.3471 15.3495 91.6206 15.4544 90.8907 15.4487C90.3783 15.4504 89.867 15.4017 89.3644 15.3033C88.9323 15.5637 88.7127 15.8545 88.7127 16.1757C88.704 16.4376 88.8573 16.6784 89.1003 16.7844C89.4244 16.935 89.7726 17.0289 90.1293 17.0617C90.6029 17.1161 91.0793 17.1421 91.5561 17.1395C92.0877 17.1395 92.6297 17.1632 93.1887 17.2072C93.7386 17.2498 94.2851 17.3277 94.8248 17.4405C95.3246 17.5407 95.8051 17.7188 96.2482 17.968C96.6696 18.2056 97.0235 18.544 97.2771 18.9521C97.5509 19.4394 97.6838 19.9915 97.6613 20.5482C97.6586 21.1642 97.5032 21.7702 97.2085 22.3134C96.8865 22.9067 96.4398 23.4255 95.8983 23.8352C95.2668 24.3122 94.5551 24.6762 93.7958 24.9105C92.8786 25.1956 91.9209 25.3337 90.9593 25.3197C90.0354 25.3343 89.1134 25.2331 88.2154 25.0188C87.5341 24.8582 86.8841 24.5886 86.2913 24.2207C85.8233 23.9309 85.4318 23.5357 85.1491 23.0676C84.9049 22.6572 84.7748 22.1906 84.7718 21.7149C84.7527 21.1231 84.9652 20.5468 85.3652 20.1052C85.8206 19.632 86.3855 19.2746 87.0115 19.0637C86.6792 18.8863 86.3964 18.6308 86.1884 18.3197C85.9679 17.9545 85.8605 17.5337 85.8797 17.1091C85.8809 16.893 85.9168 16.6784 85.986 16.4733C86.0674 16.2425 86.183 16.0249 86.329 15.8274C86.4878 15.6025 86.6758 15.399 86.8881 15.2221C87.1311 15.0205 87.3984 14.849 87.6838 14.7115C87.0123 14.3621 86.4431 13.8486 86.0306 13.2202C85.6207 12.5645 85.4122 11.8057 85.4304 11.0356C85.4062 9.77702 85.9844 8.58061 86.9909 7.80616C87.5088 7.40345 88.1003 7.10266 88.7333 6.92017C89.4325 6.70991 90.1597 6.6039 90.8907 6.60568ZM94.5504 21.0825C94.5624 20.8343 94.4749 20.5914 94.3069 20.4062C94.1232 20.2212 93.8957 20.084 93.6449 20.0072C93.3271 19.904 92.9997 19.8326 92.6674 19.7941C92.2724 19.7484 91.875 19.7258 91.4772 19.7265H90.1807C89.7465 19.7285 89.3136 19.6797 88.8911 19.5811C88.5408 19.761 88.2306 20.0082 87.9788 20.3081C87.7521 20.5791 87.6306 20.9207 87.6358 21.2719C87.6344 21.5097 87.6984 21.7434 87.821 21.9482C87.961 22.1769 88.1614 22.3639 88.4006 22.4893C88.7238 22.6539 89.0709 22.768 89.4296 22.8275C89.9422 22.9188 90.4625 22.9607 90.9833 22.9526C91.5231 22.96 92.0621 22.9124 92.5919 22.8105C92.9816 22.7365 93.3575 22.6042 93.7066 22.4183C93.9689 22.2763 94.1898 22.0701 94.348 21.8197C94.4774 21.5972 94.547 21.3458 94.5504 21.0893V21.0825ZM91.9711 13.2033C91.6236 13.3205 91.2579 13.3766 90.8907 13.369C90.5247 13.376 90.1602 13.32 89.8137 13.2033C89.5261 13.105 89.2639 12.9457 89.0454 12.7366C88.8409 12.535 88.6839 12.2914 88.5858 12.0231C88.4808 11.737 88.4285 11.4346 88.4315 11.1303C88.4017 10.5352 88.6241 9.9546 89.0454 9.52743C90.1428 8.73413 91.6352 8.73413 92.7326 9.52743C93.1553 9.9537 93.378 10.5349 93.3465 11.1303C93.35 11.4391 93.2978 11.7459 93.1922 12.0366C93.0948 12.3033 92.9377 12.5449 92.7326 12.7434C92.5148 12.9483 92.2552 13.1051 91.9711 13.2033Z" fill="#121A20"/>
<path d="M104.587 0V19.8165H101.284V0H104.587Z" fill="#121A20"/>
<path fill-rule="evenodd" clip-rule="evenodd" d="M116.573 7.02626C115.84 6.7417 115.063 6.5996 114.281 6.60688C113.357 6.58752 112.44 6.77258 111.589 7.15001C110.832 7.48736 110.15 7.98735 109.588 8.61781C109.035 9.24931 108.607 9.99021 108.33 10.7972C108.034 11.6544 107.886 12.5599 107.891 13.4716C107.873 14.5661 108.043 15.6552 108.396 16.6856C108.697 17.5539 109.167 18.3474 109.774 19.0162C110.357 19.6406 111.063 20.125 111.841 20.4359C112.66 20.7618 113.53 20.925 114.405 20.9172C114.886 20.9153 115.367 20.8786 115.843 20.8072C116.339 20.7348 116.828 20.6104 117.3 20.4359C117.784 20.2585 118.245 20.022 118.676 19.7312C119.121 19.4328 119.521 19.0654 119.862 18.6415L118.935 17.4247C118.87 17.3296 118.786 17.2509 118.689 17.1944C118.588 17.1387 118.476 17.1103 118.362 17.1119C118.145 17.119 117.935 17.1841 117.749 17.3009C117.54 17.4281 117.294 17.569 117.016 17.7203C116.701 17.8906 116.372 18.0309 116.033 18.1397C115.601 18.2762 115.151 18.3411 114.7 18.3322C113.762 18.3775 112.847 18.0144 112.172 17.3284C111.534 16.6615 111.169 15.6143 111.075 14.1866H119.262C119.385 14.192 119.507 14.1722 119.622 14.1281C119.716 14.0872 119.795 14.0162 119.848 13.9253C119.912 13.803 119.952 13.6687 119.966 13.53C119.989 13.3212 120 13.1111 119.999 12.9009C120.013 11.9909 119.869 11.0858 119.573 10.23C119.315 9.49043 118.909 8.81679 118.385 8.25344C117.872 7.71199 117.254 7.29334 116.573 7.02626ZM112.165 9.83813C112.754 9.26194 113.543 8.96385 114.346 9.01313V9.00281C114.772 8.99468 115.194 9.08261 115.584 9.26063C115.922 9.41835 116.222 9.65324 116.462 9.94813C116.697 10.2435 116.872 10.5863 116.976 10.9553C117.089 11.3535 117.146 11.767 117.143 12.1825H111.16C111.245 11.3077 111.598 10.4854 112.165 9.83813Z" fill="#121A20"/>
<path fill-rule="evenodd" clip-rule="evenodd" d="M11.0973 1.59159C11.244 1.29304 11.5505 1.10269 11.8874 1.10092L11.8775 1.11072C12.0543 1.11141 12.2268 1.16497 12.3721 1.26429L32.2493 14.4944L32.6443 14.7558C33.0197 15.0085 33.1375 15.5012 32.9161 15.8922C32.6946 16.2832 32.2069 16.4436 31.7912 16.2622C30.4191 15.7151 28.9845 15.3344 27.519 15.1283C26.7001 15.0099 25.8736 14.9498 25.0459 14.9486C22.8693 14.9165 20.7189 15.4185 18.7887 16.4092C18.6602 16.4777 18.5165 16.5136 18.3704 16.5138C18.2348 16.5137 18.1009 16.4835 17.9787 16.4255C17.7216 16.2971 17.5444 16.0531 17.504 15.772C16.4548 9.06038 13.4319 5.29204 11.2162 2.52989L11.197 2.50595C10.9893 2.24484 10.9506 1.89013 11.0973 1.59159ZM15.5485 5.47173L15.5256 5.45651H15.5389C15.5421 5.46158 15.5453 5.46666 15.5485 5.47173ZM15.5485 5.47173C17.2619 8.19321 18.4483 11.2037 19.0476 14.3507C20.9489 13.569 22.9923 13.1776 25.0526 13.2005C25.8294 13.2022 26.6053 13.2503 27.3762 13.3443L15.5485 5.47173Z" fill="url(#paint0_linear)"/>
<path fill-rule="evenodd" clip-rule="evenodd" d="M0.105103 1.69789C0.284941 1.33048 0.666164 1.0978 1.08315 1.10095V1.1181C1.30018 1.11872 1.51197 1.18328 1.69082 1.30333C2.31605 1.72182 10.697 7.25477 26.5912 17.7478L28.1508 18.7769C28.5415 19.0338 28.7145 19.5097 28.5773 19.9496C28.44 20.3896 28.0246 20.6904 27.5536 20.691C27.401 20.6918 27.25 20.6602 27.1111 20.5983C25.3148 19.8849 23.4355 19.3895 21.5156 19.1233C20.4433 18.9688 19.3609 18.8909 18.277 18.8901C15.4224 18.8487 12.6023 19.5031 10.0717 20.7939C9.91508 20.8756 9.74005 20.9181 9.56242 20.9173C9.39803 20.9185 9.23564 20.8821 9.08823 20.811C8.77362 20.662 8.55518 20.3703 8.50515 20.0323C7.11418 11.3162 3.14501 6.40407 0.243656 2.81606C-0.0207299 2.50114 -0.074735 2.0653 0.105103 1.69789ZM22.8785 17.4802L4.57813 5.39556H4.57462C7.40334 9.37959 9.31248 13.916 10.1701 18.6911C12.718 17.5745 15.4845 17.0137 18.277 17.048C19.4526 17.0497 20.6265 17.1345 21.7896 17.3019C22.1759 17.3533 22.5272 17.4151 22.8785 17.4802Z" fill="url(#paint1_linear)"/>
<defs>
<linearGradient id="paint0_linear" x1="21.829" y1="17.4917" x2="26.7109" y2="7.68862" gradientUnits="userSpaceOnUse">
<stop stop-color="#D6480D"/>
<stop offset="1" stop-color="#E59200"/>
</linearGradient>
<linearGradient id="paint1_linear" x1="12.8049" y1="21.6348" x2="17.9991" y2="11.0514" gradientUnits="userSpaceOnUse">
<stop stop-color="#90B424"/>
<stop offset="0.01" stop-color="#90B424"/>
<stop offset="1" stop-color="#56A980"/>
</linearGradient>
</defs>
</svg>
