<svg width="120" height="17" viewBox="0 0 120 17" fill="none" xmlns="http://www.w3.org/2000/svg">
<path fill-rule="evenodd" clip-rule="evenodd" d="M54.0304 6.03562C53.71 5.66034 53.3107 5.36937 52.8324 5.16162C52.3538 4.95415 51.8051 4.85041 51.1869 4.85041C50.4731 4.85041 49.8509 4.978 49.3207 5.23235C48.7908 5.48753 48.3049 5.82232 47.8633 6.23782V0H45.1356V16.2332H47.8633V8.12756C48.2312 7.76337 48.6215 7.47574 49.0339 7.26466C49.4458 7.0533 49.8876 6.94762 50.3587 6.94762C50.999 6.94762 51.4796 7.1354 51.7998 7.51013C52.1203 7.88542 52.2804 8.4152 52.2804 9.09975V16.2332H55.0075V9.09975C55.0075 8.47344 54.9246 7.90012 54.7591 7.37921C54.5934 6.85858 54.3506 6.4109 54.0304 6.03562ZM34.0333 4.26033C34.4858 3.77992 35.0272 3.41019 35.6564 3.15168C36.2858 2.89317 36.9761 2.76363 37.7269 2.76363C38.3673 2.76363 38.8955 2.82937 39.3113 2.96029C39.7274 3.09149 40.0714 3.2335 40.3439 3.38661C40.6162 3.53917 40.8407 3.68146 41.0174 3.81265C41.194 3.94357 41.367 4.00931 41.5366 4.00931C41.6984 4.00931 41.8254 3.97658 41.9174 3.91084C42.0093 3.84538 42.0848 3.76883 42.1439 3.68146L43.1376 2.31568C42.5045 1.69714 41.7444 1.20009 40.8573 0.824801C39.9702 0.449794 38.9339 0.26229 37.7491 0.26229C36.5345 0.26229 35.4245 0.460611 34.4196 0.857531C33.4148 1.25445 32.5518 1.80975 31.8304 2.52343C31.1087 3.23738 30.5493 4.08753 30.1518 5.07442C29.7542 6.06103 29.5554 7.14806 29.5554 8.33493C29.5554 9.50766 29.734 10.5891 30.0909 11.5796C30.4481 12.5699 30.9615 13.4219 31.6316 14.1359C32.3014 14.8496 33.1094 15.4068 34.0554 15.8071C35.0011 16.2076 36.0668 16.4079 37.252 16.4079C38.577 16.4079 39.7125 16.1968 40.6588 15.7743C41.6045 15.3519 42.4016 14.7439 43.0493 13.9501L41.8787 12.6936C41.7609 12.5699 41.6208 12.508 41.459 12.508C41.3636 12.508 41.275 12.5282 41.194 12.5682C41.113 12.6084 41.0359 12.6608 40.9624 12.7263C40.7193 12.9451 40.4746 13.129 40.2281 13.2783C39.9814 13.4275 39.7201 13.5495 39.4439 13.6441C39.1678 13.739 38.8658 13.808 38.5383 13.8516C38.2108 13.8954 37.8447 13.917 37.4398 13.917C36.7624 13.917 36.1296 13.7914 35.5406 13.5404C34.9515 13.2891 34.4398 12.9268 34.0055 12.4534C33.5712 11.9802 33.2272 11.3974 32.9732 10.7054C32.7192 10.0136 32.5921 9.22363 32.5921 8.33493C32.5921 7.47591 32.7192 6.70204 32.9732 6.0136C33.2272 5.32544 33.5805 4.74102 34.0333 4.26033ZM65.4648 6.03575C65.1042 5.65326 64.6641 5.35453 64.1454 5.13984C63.6261 4.92516 63.0356 4.81753 62.3728 4.81753C60.5325 4.81753 58.9607 5.40751 57.6578 6.58717L58.1546 7.45008C58.2359 7.58848 58.3425 7.70526 58.4751 7.79984C58.6077 7.8947 58.7658 7.94186 58.9498 7.94186C59.1707 7.94186 59.3731 7.89082 59.557 7.78875C59.7413 7.68695 59.9417 7.5724 60.159 7.44481C60.376 7.31749 60.6317 7.20294 60.9264 7.10059C61.2208 6.99879 61.5889 6.94775 62.0308 6.94775C62.6414 6.94775 63.1074 7.12943 63.4276 7.49251C63.7478 7.85559 63.9079 8.41561 63.9079 9.17117V9.83159C62.6196 9.83159 61.5413 9.94143 60.6724 10.1606C59.8038 10.3797 59.1082 10.6557 58.5856 10.988C58.0627 11.3205 57.6892 11.693 57.4649 12.1058C57.24 12.5188 57.1279 12.9371 57.1279 13.3612C57.1279 13.8651 57.2086 14.3073 57.371 14.6873C57.5327 15.067 57.759 15.3851 58.0498 15.6406C58.3408 15.8963 58.6884 16.0886 59.0933 16.2164C59.4982 16.344 59.94 16.4078 60.4186 16.4078C60.8232 16.4078 61.1916 16.3751 61.5227 16.3096C61.8542 16.2439 62.1668 16.1457 62.4614 16.0145C62.7558 15.8833 63.041 15.7213 63.3171 15.5285C63.593 15.3358 63.8748 15.1117 64.1616 14.8567L64.4047 15.6542C64.4782 15.8872 64.5886 16.042 64.7361 16.1185C64.8833 16.1948 65.0855 16.2331 65.3434 16.2331H66.5689V9.15453C66.5689 8.52073 66.475 7.93825 66.2874 7.40653C66.0996 6.87508 65.8254 6.4177 65.4648 6.03575ZM63.9079 13.3573C63.7091 13.5581 63.512 13.732 63.3171 13.8787C63.122 14.0257 62.9196 14.1492 62.7099 14.2499C62.5001 14.35 62.2772 14.4254 62.0417 14.4754C61.8059 14.5258 61.5485 14.5508 61.2687 14.5508C60.8123 14.5508 60.4425 14.4484 60.159 14.2426C59.8756 14.0374 59.7337 13.6965 59.7337 13.2194C59.7337 12.9775 59.8018 12.7537 59.9381 12.5484C60.0743 12.3432 60.3043 12.1632 60.6284 12.0092C60.9522 11.8553 61.3809 11.7285 61.9147 11.6295C62.4483 11.5308 63.1128 11.4811 63.9079 11.4811V13.3573ZM73.2495 5.4183C72.7047 5.81883 72.2298 6.36497 71.8249 7.05674L71.6592 5.70233C71.6222 5.45491 71.549 5.28017 71.4386 5.1781C71.3278 5.0763 71.1329 5.02499 70.8531 5.02499H69.2519V16.233H71.9797V9.25269C72.2592 8.65551 72.6013 8.20229 73.0064 7.89274C73.4113 7.58319 73.8972 7.42842 74.4641 7.42842C74.7806 7.42842 75.0344 7.45394 75.2261 7.50469C75.4171 7.55573 75.5685 7.58125 75.6786 7.58125C75.8037 7.58125 75.9032 7.55379 75.977 7.49942C76.0501 7.44478 76.0984 7.35186 76.1202 7.22066L76.4738 5.19973C76.1057 4.9451 75.6416 4.81751 75.0823 4.81751C74.4049 4.81751 73.794 5.01805 73.2495 5.4183ZM81.1779 16.2332H78.4505V0.000256506H81.1779V16.2332ZM90.9115 5.18883C91.5112 5.41489 92.0282 5.74441 92.4628 6.17766C92.8971 6.61092 93.2358 7.14264 93.4786 7.77256C93.7217 8.40247 93.8431 9.12169 93.8431 9.92996C93.8431 10.1338 93.8336 10.3033 93.8153 10.4378C93.7971 10.5726 93.7638 10.6783 93.7158 10.7549C93.6682 10.8311 93.6037 10.8858 93.5229 10.9185C93.4419 10.9515 93.3387 10.9676 93.2137 10.9676H86.213C86.2938 12.1187 86.6067 12.9633 87.1514 13.5022C87.6962 14.0412 88.4176 14.3105 89.3156 14.3105C89.7572 14.3105 90.1385 14.2595 90.4584 14.1574C90.7789 14.0556 91.0584 13.943 91.2976 13.8187C91.537 13.695 91.7467 13.5824 91.9273 13.4803C92.1076 13.3785 92.2823 13.3272 92.4519 13.3272C92.5621 13.3272 92.6577 13.3491 92.7387 13.3927C92.8197 13.4368 92.8896 13.4984 92.9487 13.5785L93.7436 14.5618C93.4419 14.9113 93.1032 15.2047 92.7278 15.4411C92.3524 15.6779 91.9604 15.8671 91.5519 16.0091C91.1434 16.1514 90.727 16.2513 90.3042 16.3095C89.8806 16.3678 89.4704 16.3969 89.0728 16.3969C88.285 16.3969 87.5526 16.2676 86.8755 16.0091C86.1981 15.7506 85.6091 15.3684 85.1086 14.8622C84.6079 14.356 84.2142 13.7297 83.9271 12.9833C83.64 12.2366 83.4965 11.3717 83.4965 10.3887C83.4965 9.62402 83.6218 8.90507 83.8719 8.23133C84.1223 7.55759 84.4809 6.9715 84.9485 6.47251C85.4159 5.9738 85.9865 5.57854 86.6599 5.2873C87.3337 4.99606 88.0938 4.85016 88.9402 4.85016C89.6543 4.85016 90.3112 4.96333 90.9115 5.18883ZM87.1293 7.45026C86.6804 7.89461 86.393 8.52452 86.268 9.34H91.3915C91.3915 8.99051 91.3439 8.66127 91.2483 8.35144C91.1524 8.04189 91.0052 7.7709 90.8064 7.53763C90.6079 7.30464 90.3572 7.12074 90.0556 6.98594C89.7539 6.85113 89.4003 6.78373 88.9958 6.78373C88.2006 6.78373 87.5785 7.00618 87.1293 7.45026ZM101.771 10.132C102.103 10.2812 102.399 10.4706 102.66 10.7C102.921 10.9294 103.131 11.2043 103.289 11.5249C103.448 11.8453 103.527 12.2314 103.527 12.6827C103.527 13.2219 103.427 13.7189 103.229 14.1738C103.03 14.6293 102.739 15.0223 102.356 15.3535C101.974 15.6852 101.501 15.9435 100.937 16.1293C100.374 16.3149 99.7283 16.4078 98.9994 16.4078C98.6094 16.4078 98.2281 16.3731 97.8566 16.304C97.4848 16.2347 97.1279 16.1385 96.7855 16.0145C96.4432 15.891 96.1266 15.7451 95.8359 15.5776C95.5449 15.4101 95.2892 15.2281 95.0685 15.0315L95.698 14.0046C95.7787 13.8809 95.8746 13.7861 95.9848 13.7206C96.0952 13.6549 96.2351 13.6221 96.4045 13.6221C96.5738 13.6221 96.7339 13.6696 96.8848 13.7644C97.0356 13.859 97.2106 13.9611 97.4094 14.0701C97.6081 14.1794 97.8417 14.2814 98.1106 14.376C98.3792 14.4709 98.7195 14.518 99.132 14.518C99.4558 14.518 99.7337 14.4798 99.9658 14.4035C100.198 14.3269 100.389 14.2268 100.54 14.1031C100.691 13.9791 100.801 13.8354 100.871 13.6715C100.941 13.5076 100.976 13.3384 100.976 13.1634C100.976 12.9015 100.897 12.6866 100.739 12.519C100.58 12.3515 100.37 12.2059 100.109 12.0819C99.8478 11.9582 99.5497 11.8472 99.2147 11.7488C98.8799 11.6506 98.5376 11.5432 98.188 11.4265C97.8383 11.31 97.4957 11.1735 97.1609 11.0171C96.8256 10.8603 96.5279 10.6617 96.2665 10.4215C96.0052 10.1813 95.7955 9.8862 95.6371 9.53672C95.4787 9.18723 95.3996 8.76479 95.3996 8.2694C95.3996 7.81063 95.4919 7.37377 95.6758 6.95854C95.8597 6.54359 96.1303 6.18134 96.4872 5.8718C96.8444 5.56225 97.2896 5.31456 97.8235 5.12872C98.357 4.94315 98.9738 4.85023 99.6731 4.85023C100.453 4.85023 101.164 4.97783 101.804 5.23245C102.445 5.48764 102.978 5.82242 103.405 6.23765L102.787 7.20984C102.713 7.32634 102.636 7.40844 102.555 7.45559C102.474 7.5033 102.371 7.52688 102.246 7.52688C102.113 7.52688 101.972 7.49026 101.821 7.41731C101.67 7.34464 101.495 7.26254 101.296 7.17156C101.098 7.08058 100.871 6.99876 100.617 6.92581C100.363 6.85314 100.063 6.81653 99.7171 6.81653C99.1799 6.81653 98.7566 6.92942 98.4476 7.1552C98.138 7.38098 97.9836 7.6761 97.9836 8.04002C97.9836 8.28022 98.0626 8.48242 98.221 8.64635C98.3792 8.81028 98.5889 8.95396 98.8505 9.07766C99.1118 9.20193 99.4079 9.3126 99.7393 9.41107C100.071 9.50926 100.409 9.61688 100.755 9.73337C101.101 9.84987 101.44 9.98273 101.771 10.132ZM107.216 1.93517C107.381 1.76015 107.578 1.6259 107.807 1.53187C108.036 1.43756 108.287 1.39069 108.56 1.39069C108.793 1.39069 108.985 1.41454 109.137 1.46225C109.288 1.50996 109.413 1.56155 109.512 1.6173C109.611 1.67305 109.693 1.72437 109.757 1.77207C109.822 1.81978 109.885 1.84391 109.946 1.84391C110.005 1.84391 110.051 1.83171 110.085 1.80786C110.118 1.784 110.146 1.75626 110.167 1.72437L110.529 1.22759C110.298 1.00264 110.022 0.82152 109.699 0.685052C109.376 0.548585 108.999 0.480352 108.568 0.480352C108.126 0.480352 107.722 0.552746 107.357 0.696979C106.991 0.84149 106.677 1.04342 106.415 1.30332C106.152 1.56294 105.948 1.87221 105.804 2.23113C105.659 2.59032 105.587 2.98586 105.587 3.418C105.587 3.8446 105.652 4.23791 105.782 4.5985C105.912 4.95853 106.098 5.26891 106.342 5.52853C106.586 5.78815 106.88 5.99091 107.224 6.13653C107.568 6.28242 107.956 6.35537 108.387 6.35537C108.869 6.35537 109.283 6.27826 109.627 6.1246C109.971 5.97094 110.261 5.74959 110.497 5.46085L110.071 5.00374C110.028 4.95853 109.977 4.93606 109.918 4.93606C109.883 4.93606 109.851 4.94355 109.822 4.95797C109.792 4.97267 109.764 4.99209 109.737 5.01567C109.649 5.09527 109.56 5.16212 109.47 5.21648C109.381 5.27057 109.285 5.31523 109.185 5.34962C109.084 5.38402 108.974 5.40898 108.855 5.42507C108.736 5.44115 108.603 5.44892 108.456 5.44892C108.209 5.44892 107.979 5.40315 107.764 5.3119C107.55 5.22037 107.364 5.08861 107.206 4.91637C107.048 4.74412 106.923 4.53193 106.83 4.28035C106.738 4.02877 106.692 3.74114 106.692 3.418C106.692 3.10513 106.738 2.82359 106.83 2.57313C106.923 2.32266 107.051 2.11019 107.216 1.93517ZM111.867 5.19861C111.942 5.23023 112.006 5.27295 112.06 5.32565C112.113 5.37863 112.156 5.44242 112.188 5.51648C112.22 5.59082 112.237 5.66876 112.237 5.75086C112.237 5.83601 112.22 5.91451 112.188 5.98746C112.156 6.06041 112.113 6.12337 112.06 6.17607C112.006 6.22933 111.942 6.27093 111.867 6.30172C111.792 6.33196 111.713 6.34721 111.63 6.34721C111.544 6.34721 111.464 6.33196 111.388 6.30172C111.314 6.27093 111.249 6.22933 111.194 6.17607C111.139 6.12337 111.096 6.06041 111.065 5.98746C111.034 5.91451 111.019 5.83601 111.019 5.75086C111.019 5.66876 111.034 5.59082 111.065 5.51648C111.096 5.44242 111.139 5.37863 111.194 5.32565C111.249 5.27295 111.314 5.23023 111.388 5.19861C111.464 5.16671 111.544 5.15063 111.63 5.15063C111.713 5.15063 111.792 5.16671 111.867 5.19861ZM116.539 0.756706C116.901 0.898443 117.21 1.09565 117.468 1.3489C117.725 1.60214 117.924 1.90475 118.066 2.25729C118.208 2.60955 118.279 2.99649 118.279 3.41782C118.279 3.83914 118.208 4.2258 118.066 4.57834C117.924 4.93088 117.725 5.23433 117.468 5.48868C117.21 5.74303 116.901 5.94052 116.539 6.08087C116.178 6.22149 115.777 6.29167 115.338 6.29167H113.12V0.543961H115.338C115.777 0.543961 116.178 0.614969 116.539 0.756706ZM116.68 4.9023C116.838 4.72895 116.96 4.51676 117.046 4.26629C117.131 4.0161 117.174 3.73318 117.174 3.41781C117.174 3.10244 117.131 2.81952 117.046 2.56933C116.96 2.31886 116.838 2.10695 116.68 1.93331C116.522 1.75968 116.33 1.62626 116.104 1.53362C115.877 1.44098 115.622 1.39438 115.338 1.39438H114.209V5.44096H115.338C115.622 5.44096 115.877 5.39464 116.104 5.30172C116.33 5.20908 116.522 5.07594 116.68 4.9023ZM119.665 5.32579C119.719 5.37877 119.762 5.44229 119.794 5.51662C119.826 5.59096 119.842 5.6689 119.842 5.751C119.842 5.83588 119.826 5.91465 119.794 5.98732C119.762 6.06055 119.719 6.12351 119.665 6.17621C119.612 6.22919 119.547 6.27107 119.472 6.30159C119.397 6.33182 119.319 6.34707 119.236 6.34707C119.15 6.34707 119.069 6.33182 118.994 6.30159C118.919 6.27107 118.854 6.22919 118.8 6.17621C118.745 6.12351 118.701 6.06055 118.671 5.98732C118.64 5.91465 118.625 5.83588 118.625 5.751C118.625 5.6689 118.64 5.59096 118.671 5.51662C118.701 5.44229 118.745 5.37877 118.8 5.32579C118.854 5.27281 118.919 5.23037 118.994 5.19875C119.069 5.16658 119.15 5.15077 119.236 5.15077C119.319 5.15077 119.397 5.16658 119.472 5.19875C119.547 5.23037 119.612 5.27281 119.665 5.32579Z" fill="black"/>
<path fill-rule="evenodd" clip-rule="evenodd" d="M18.7446 10.2242C16.0088 10.2242 13.7831 8.02213 13.7831 5.31554C13.7831 2.60894 16.0088 0.407156 18.7446 0.407156C21.4803 0.407156 23.7059 2.60894 23.7059 5.31554C23.7059 8.02213 21.4803 10.2242 18.7446 10.2242ZM18.7446 1.16549C16.4312 1.16549 14.5493 3.02749 14.5493 5.31554C14.5493 7.60386 16.4312 9.46586 18.7446 9.46586C21.0574 9.46586 22.9395 7.60386 22.9395 5.31554C22.9395 3.02749 21.0574 1.16549 18.7446 1.16549Z" fill="black"/>
<path fill-rule="evenodd" clip-rule="evenodd" d="M6.89019 16.4268C3.09084 16.4268 0 13.369 0 9.61037C0 5.8517 3.09084 2.79423 6.89019 2.79423C10.6895 2.79423 13.7804 5.8517 13.7804 9.61037C13.7804 13.369 10.6895 16.4268 6.89019 16.4268ZM6.8902 4.13559C3.83861 4.13559 1.35618 6.59172 1.35618 9.61036C1.35618 12.6293 3.83861 15.0854 6.8902 15.0854C9.94179 15.0854 12.4242 12.6293 12.4242 9.61036C12.4242 6.59172 9.94179 4.13559 6.8902 4.13559Z" fill="url(#paint0_linear)"/>
<path fill-rule="evenodd" clip-rule="evenodd" d="M17.4885 16.3721C16.1136 16.3721 14.9949 15.2654 14.9949 13.9052C14.9949 12.545 16.1136 11.4382 17.4885 11.4382C18.8635 11.4382 19.9822 12.545 19.9822 13.9052C19.9822 15.2654 18.8635 16.3721 17.4885 16.3721ZM17.4885 12.2091C16.5433 12.2091 15.7743 12.9702 15.7743 13.9052C15.7743 14.8405 16.5433 15.6013 17.4885 15.6013C18.4339 15.6013 19.2027 14.8405 19.2027 13.9052C19.2027 12.9702 18.4339 12.2091 17.4885 12.2091Z" fill="url(#paint1_linear)"/>
<defs>
<linearGradient id="paint0_linear" x1="6.86269" y1="19.6663" x2="17.0383" y2="9.9072" gradientUnits="userSpaceOnUse">
<stop stop-color="#EF4123"/>
<stop offset="1" stop-color="#F7941E"/>
</linearGradient>
<linearGradient id="paint1_linear" x1="18.5455" y1="10.7934" x2="14.6426" y2="13.6759" gradientUnits="userSpaceOnUse">
<stop stop-color="#8DC63F"/>
<stop offset="1" stop-color="#40BA8D"/>
</linearGradient>
</defs>
</svg>
