<svg width="120" height="27" viewBox="0 0 120 27" fill="none" xmlns="http://www.w3.org/2000/svg">
<path fill-rule="evenodd" clip-rule="evenodd" d="M22.0616 6.3571C21.7319 7.02862 21.2236 7.71128 20.6282 8.36535C20.4592 8.55108 20.3354 8.71534 20.2407 8.86273C20.2503 10.3819 20.2733 13.3406 20.2834 13.7621C20.3453 16.3258 19.4173 18.5204 17.4456 20.4712C17.1724 20.7417 16.8891 20.9915 16.5971 21.2419C16.8675 21.0099 15.9688 21.8358 14.4964 22.7853C13.493 23.4055 12.3974 23.9449 11.1953 24.4087C8.74895 23.462 6.72009 22.1715 5.00209 20.4712C4.69088 20.1632 4.40741 19.8491 4.14814 19.5286H4.14642L4.13702 19.5146C3.78613 19.0795 3.48099 18.6325 3.22447 18.172C3.22608 18.1711 3.2278 18.17 3.2294 18.1691L2.84411 17.598C1.72206 17.3546 0.758485 16.6804 0.136742 15.7568C0.216208 16.2651 0.328929 16.7613 0.479262 17.2449C0.762728 18.1135 0.857904 18.2872 1.35133 19.26C1.89533 20.2236 2.60353 21.1377 3.48374 22.0086C5.51261 24.0167 7.91346 25.5115 10.8236 26.5786L11.1952 26.7148L11.5666 26.5786C14.5384 25.4889 16.9581 23.994 18.964 22.0087C21.3819 19.6163 22.5196 16.9017 22.4426 13.7102C22.4354 13.4106 22.429 9.19586 22.4249 5.51787C22.314 5.80037 22.1964 6.08286 22.0616 6.3571Z" fill="#D63C1A"/>
<path fill-rule="evenodd" clip-rule="evenodd" d="M22.4193 0L22.4194 0.14041C22.4194 0.145802 22.4195 0.151343 22.4195 0.157031L22.4195 0.27508C22.4196 0.282494 22.4196 0.290049 22.4196 0.297742L22.4197 0.423427C22.4197 0.432482 22.4197 0.44167 22.4197 0.45099L22.4198 0.569089C22.4198 0.579446 22.4198 0.589931 22.4198 0.600541L22.4199 0.699406C22.4199 0.710762 22.4199 0.722241 22.4199 0.733841L22.42 0.841486C22.42 0.853803 22.42 0.866238 22.42 0.87879L22.4201 0.955492C22.4201 0.968506 22.4201 0.981634 22.4201 0.994875L22.4202 1.07567C22.4202 1.08936 22.4202 1.10316 22.4203 1.11706L22.4204 1.24517C22.4204 1.25972 22.4204 1.27439 22.4204 1.28915L22.4205 1.379C22.4205 1.42454 22.4206 1.471 22.4206 1.51836L22.4207 1.61424C22.4207 1.63042 22.4207 1.64669 22.4207 1.66305L22.4208 1.76239C22.4209 1.84611 22.421 1.93215 22.4211 2.02037L22.4212 2.12727C22.4216 2.64891 22.4222 3.24178 22.4229 3.87703L22.4114 3.91277C22.2856 4.3054 22.1652 4.68085 22.1433 4.73968L22.0962 4.86588C21.9385 5.28761 21.7734 5.71845 21.577 6.11865L21.5377 6.19702C21.2177 6.82385 20.7536 7.44682 20.2361 7.9934L20.236 7.99368L20.2359 7.99386L20.1768 8.05963C20.1372 8.10337 20.0973 8.14684 20.0568 8.18969L19.9901 8.25976C19.3882 8.88855 18.7442 9.46707 17.9775 9.89444L17.8495 9.96615C17.551 10.1341 17.2536 10.305 16.9453 10.4522L16.9218 10.4634C16.6227 10.6056 16.5993 10.6073 16.5977 10.9253L16.5976 10.9768L16.5976 11.0224L16.5975 11.2233C16.5975 11.2413 16.5975 11.2595 16.5975 11.2781L16.5974 11.6426C16.5974 11.6645 16.5974 11.6866 16.5974 11.709L16.5973 12.2168C16.5973 12.2426 16.5973 12.2687 16.5973 12.2951L16.5972 13.057C16.5972 13.0871 16.5972 13.1172 16.5972 13.1476L16.5971 14.4139C16.5971 14.4482 16.5971 14.4826 16.5971 14.5171L16.5969 20.5412L16.5605 20.5728C16.0895 20.9797 15.2644 21.6534 14.496 22.1705L14.496 21.5272C14.496 21.5033 14.4959 21.4789 14.4959 21.4539L14.4958 20.0029C14.4958 19.9645 14.4958 19.9258 14.4958 19.8868L14.4957 18.7666C14.4957 18.723 14.4957 18.6793 14.4957 18.6354L14.4956 17.8302C14.4956 17.7849 14.4956 17.7394 14.4956 17.6939L14.4955 17.0081C14.4955 16.9623 14.4955 16.9166 14.4955 16.8708L14.4954 16.3241C14.4954 16.2788 14.4954 16.2336 14.4954 16.1885L14.4953 15.653C14.4953 15.6089 14.4953 15.565 14.4952 15.5213L14.4952 15.133C14.4952 15.0904 14.4951 15.0481 14.4951 15.0061L14.4951 14.6342C14.495 14.5937 14.495 14.5535 14.495 14.5135L14.4949 14.1625C14.4949 14.1245 14.4949 14.0868 14.4949 14.0494L14.4948 13.7235C14.4948 13.6884 14.4948 13.6538 14.4948 13.6196L14.4947 13.4192C14.4947 13.3867 14.4947 13.3547 14.4947 13.3231L14.4946 13.0515C14.4946 13.0228 14.4946 12.9946 14.4945 12.9669L14.4945 12.8072C14.4945 12.7817 14.4944 12.7567 14.4944 12.7323L14.4944 12.5927C14.4943 12.5706 14.4943 12.5491 14.4943 12.5283L14.4942 12.4104C14.4942 12.3921 14.4942 12.3743 14.4942 12.3573L14.4941 12.2628L14.4938 12.2281C14.4917 12.0889 14.4778 11.9453 14.4668 11.7449L14.4251 11.7632C14.2757 11.8281 14.1619 11.8694 14.0584 11.9286L13.2878 12.3723C12.7745 12.6689 12.2619 12.9666 11.7473 13.2609L10.9575 13.7107C10.1671 14.1596 9.37537 14.6064 8.58733 15.0595L8.57985 15.0638C8.3766 15.1807 7.29047 15.811 5.94486 16.5922L5.9428 16.5841L5.87149 16.6294C5.65598 16.7632 5.42615 16.8756 5.18517 16.9656L5.17771 16.9694L5.17519 16.969L5.10419 16.9944C4.72382 17.1267 4.31662 17.2011 3.89226 17.2062L3.85416 17.2064L3.81589 17.2066L3.73349 17.2051C3.51434 17.1988 3.29974 17.1745 3.0914 17.1329L3.09131 17.1329L3.09106 17.1328L3.04029 17.1217L2.98969 17.1099L2.90416 17.0887C2.76222 17.0519 2.62339 17.0081 2.48846 16.9585L2.43726 16.9394L2.38641 16.9195L2.38755 16.9211H2.38744L2.34075 16.9024C0.92984 16.3285 0 14.9745 0 13.3574L0.000666787 13.2886C0.00154168 13.2428 0.003249 13.1972 0.00561885 13.1518L0.00607753 13.0865H0.0105497L0.014764 13.0315C0.131268 11.6399 0.986488 10.4586 2.18745 9.88308L2.2488 9.85435C2.72135 9.63815 3.24543 9.51568 3.79731 9.50875L3.82156 9.50803L3.84582 9.50748L3.90482 9.50793C5.16124 9.52686 6.27084 10.1493 6.95901 11.0979L6.98778 11.1305C7.05343 11.2078 7.10846 11.294 7.1505 11.3879L7.18225 11.4422L7.21323 11.4971L7.19591 11.5055L7.20726 11.5443C7.23211 11.6353 7.24545 11.7311 7.24545 11.8301L7.24502 11.861C7.22872 12.4448 6.75079 12.913 6.16377 12.913L6.12736 12.9124C5.76476 12.9003 5.44772 12.7096 5.26051 12.4254L5.24984 12.4305L5.22556 12.3947C4.97825 12.0401 4.59804 11.7858 4.15715 11.7032L4.10645 11.6944C4.02153 11.681 3.93459 11.6732 3.84582 11.6732L3.8073 11.6737C2.98791 11.6921 2.31504 12.2978 2.18734 13.0865L2.17931 13.1414C2.17457 13.1782 2.17106 13.2154 2.16876 13.2529L2.16773 13.4412L2.16993 13.4777C2.23189 14.3514 2.95742 15.0415 3.84582 15.0415L3.90216 15.0405C4.07044 15.0348 4.23186 15.0033 4.38408 14.952L4.38397 14.9531L4.39016 14.9497L4.39763 14.9467C4.70176 14.8162 10.6807 11.4535 11.0376 11.2498L11.0302 11.2464C10.8346 11.1616 9.18445 10.6465 8.51084 10.2999L8.41447 10.2497C7.48604 9.76028 6.64837 9.15041 5.91711 8.38254L5.84052 8.30132C5.23171 7.64914 4.71623 6.93939 4.30209 6.15114L4.28939 6.12781C4.19489 5.96074 4.06951 5.88217 3.85706 5.88437L3.83852 5.88454C3.70339 5.88573 3.45737 5.88659 3.19462 5.8872L3.11918 5.88737C3.10656 5.88739 3.09392 5.88742 3.08127 5.88745L3.00538 5.88759C2.87902 5.88783 2.75395 5.88802 2.64035 5.88816L2.57364 5.88824C2.56278 5.88826 2.55205 5.88827 2.54147 5.88828L2.45044 5.88838C2.44082 5.88839 2.43138 5.8884 2.42212 5.88841L2.3206 5.8885C2.313 5.88851 2.30561 5.88851 2.29847 5.88852L2.16215 5.88861L2.16108 5.88861V7.50325L2.16064 7.5341C2.14434 8.10802 1.67455 8.56827 1.0974 8.56839H1.06552L1.0347 8.56795C0.461375 8.55173 0.00149072 8.08123 0.00149072 7.50325V0H22.4193ZM20.2595 2.16207H2.16108V3.78256H2.1925V3.78646L3.69319 3.78641L5.19388 3.78669L5.24329 3.78677C5.55667 3.78795 5.55731 3.8072 5.68651 4.13933L5.71741 4.21786C6.29941 5.67983 7.17636 6.91506 8.4832 7.83373L8.56969 7.89359C9.14809 8.28774 9.76408 8.58498 10.4225 8.82724L10.5093 8.85847C11.4359 9.18439 12.3849 9.28007 13.3541 9.23176L13.4502 9.22629C14.0906 9.18551 14.7157 9.05816 15.3286 8.83941L15.4362 8.80037C15.9366 8.61577 16.4132 8.39669 16.8713 8.12231L16.9566 8.0703C17.5214 7.71948 18.0164 7.28749 18.4695 6.80625L18.532 6.73914C18.9873 6.24478 19.3781 5.70011 19.6697 5.09117L19.7285 4.96847C19.9046 4.60133 20.0778 4.24092 20.2539 3.83904L20.2538 3.81206L20.2595 2.16207ZM12.8713 3.85924L12.9364 3.85925L13.1318 3.85934C15.2131 3.86096 17.2154 3.88198 17.3876 3.92364L17.3667 3.99571C17.1808 4.61758 16.8654 5.16737 16.4443 5.65042L16.3989 5.70193C15.5315 6.67307 14.4224 7.21823 13.1315 7.31017L13.0613 7.31462C10.7482 7.44301 8.66521 5.77282 8.30455 3.92341C8.43391 3.88603 10.1635 3.86466 12.0803 3.86014L12.2113 3.85986C12.2331 3.85982 12.255 3.85978 12.2769 3.85974L12.4086 3.85954C12.4745 3.85945 12.5405 3.85938 12.6066 3.85933L12.8051 3.85924L12.8713 3.85924Z" fill="#28304D"/>
<path fill-rule="evenodd" clip-rule="evenodd" d="M89.9494 8.36073L90.0434 8.36129C90.8867 8.37131 91.657 8.51667 92.3539 8.79716L92.4337 8.8299C93.121 9.11683 93.6964 9.48831 94.1604 9.94472L93.4626 11.0547L93.4418 11.0872C93.365 11.2031 93.2847 11.2858 93.2011 11.3353L93.1755 11.3494C93.0882 11.3941 92.9806 11.4164 92.8522 11.4164L92.8175 11.4157C92.678 11.4098 92.5296 11.3685 92.3726 11.2917L92.3206 11.2664C92.1625 11.1898 91.9826 11.1047 91.7808 11.011L91.7125 10.9802C91.505 10.8886 91.2724 10.8053 91.0145 10.7303L90.9602 10.7153C90.6854 10.6423 90.3649 10.6057 89.999 10.6057L89.9388 10.6061C89.3609 10.6144 88.9035 10.7433 88.5663 10.9924L88.532 11.0184C88.206 11.2727 88.043 11.6008 88.043 12.0026L88.0436 12.0434C88.0521 12.2999 88.1411 12.5171 88.3108 12.6949L88.3473 12.732C88.5212 12.9037 88.7458 13.0555 89.021 13.1874L89.0955 13.2225C89.3718 13.3498 89.6813 13.4648 90.024 13.5678L90.1847 13.6166C90.507 13.7153 90.8355 13.8218 91.1702 13.9356L91.3162 13.9865C91.6559 14.1071 91.9894 14.2419 92.3165 14.391L92.3907 14.4257C92.7346 14.5905 93.0441 14.7951 93.3194 15.0396L93.3708 15.0863C93.6419 15.3385 93.8613 15.637 94.0296 15.9812L94.0523 16.0293C94.2157 16.3855 94.2974 16.8102 94.2974 17.3032L94.2968 17.3799C94.2879 17.9658 94.1759 18.5078 93.9611 19.0056L93.9325 19.0702C93.7093 19.5626 93.3906 19.99 92.9768 20.3525L92.9244 20.3975C92.502 20.7545 91.9858 21.0346 91.3757 21.2381L91.302 21.2621C90.6841 21.4581 89.9799 21.5561 89.1892 21.5561L89.0793 21.5553C88.6773 21.5492 88.2841 21.51 87.8997 21.4376L87.7857 21.4153C87.4071 21.3383 87.0422 21.2358 86.6912 21.1072L86.5953 21.0714C86.2457 20.9381 85.9204 20.7838 85.6197 20.6084L85.5447 20.5639C85.2474 20.385 84.9839 20.1919 84.7539 19.9846L85.464 18.8122L85.4893 18.7746C85.5751 18.6517 85.6747 18.5561 85.788 18.4881L85.8152 18.4726C85.9352 18.408 86.0838 18.3758 86.2613 18.3758L86.2994 18.3765C86.4764 18.3833 86.6443 18.4371 86.8034 18.5379L86.8611 18.5743C87.0176 18.672 87.1958 18.7763 87.3952 18.8872L87.4521 18.9182C87.6636 19.0312 87.9083 19.1374 88.1863 19.2364L88.2324 19.2522C88.528 19.3498 88.8968 19.3985 89.3387 19.3985L89.4066 19.398C89.7431 19.3929 90.0341 19.3494 90.2794 19.2676L90.3348 19.2485C90.5717 19.1638 90.7691 19.0559 90.9273 18.9245L90.963 18.8939C91.115 18.7596 91.2276 18.6056 91.3011 18.4318L91.32 18.385C91.3862 18.2126 91.4194 18.0349 91.4194 17.852L91.4188 17.8096C91.4107 17.5294 91.3216 17.2984 91.1516 17.1161L91.1151 17.0782C90.9411 16.9028 90.7165 16.7493 90.4414 16.6172L90.3726 16.5849C90.0945 16.4566 89.7811 16.3404 89.4322 16.2368L89.2697 16.1881C88.9436 16.0893 88.6116 15.9829 88.2736 15.8688L88.1423 15.8237C87.7931 15.7011 87.4507 15.5602 87.1148 15.4013L87.0398 15.3649C86.6922 15.1921 86.3807 14.9775 86.1056 14.7215L86.057 14.6752C85.7845 14.4095 85.5641 14.0881 85.3954 13.7113L85.3736 13.661C85.2094 13.2718 85.1276 12.8065 85.1276 12.2645L85.1282 12.1932C85.1372 11.6953 85.2407 11.2202 85.439 10.7679L85.4666 10.7064C85.6733 10.2581 85.9693 9.86495 86.3548 9.52688L86.4056 9.48308C86.7996 9.15012 87.2852 8.882 87.8624 8.67881C88.4645 8.46668 89.16 8.36073 89.9494 8.36073ZM74.5249 8.56035V16.692L74.5253 16.7567C74.5351 17.5071 74.7157 18.0904 75.067 18.5068L75.0951 18.5393C75.4562 18.9459 75.9887 19.149 76.6929 19.149L76.7591 19.1484C77.2658 19.139 77.7421 19.0207 78.1879 18.7935L78.2612 18.7554C78.6993 18.5221 79.1151 18.2085 79.5086 17.8145V8.56035H82.586V21.3566H80.7046L80.6698 21.3561C80.2907 21.3454 80.0407 21.1586 79.9197 20.7955L79.708 19.7727L79.6191 19.8606C79.3811 20.0927 79.1365 20.3066 78.8856 20.5023L78.8146 20.5567C78.5529 20.7537 78.2754 20.9226 77.9823 21.0635L77.9019 21.1013C77.6049 21.2373 77.2869 21.3452 76.9482 21.4252L76.8686 21.4432C76.5218 21.5185 76.1519 21.5561 75.7584 21.5561L75.6783 21.5555C75.0134 21.5468 74.4235 21.4285 73.9083 21.2007L73.8418 21.1706C73.3351 20.9357 72.9067 20.6111 72.5565 20.1967L72.5093 20.1399C72.1671 19.7196 71.9067 19.2251 71.7279 18.6564L71.703 18.5749C71.5328 18.0023 71.4475 17.3747 71.4475 16.692V8.56035H74.5249ZM52.8215 8.36073L52.9199 8.36128C53.8362 8.37153 54.6693 8.52527 55.4192 8.82219L55.4991 8.85447C56.2414 9.16009 56.8772 9.58598 57.4063 10.1317L57.4626 10.1907C57.9836 10.745 58.3886 11.4154 58.6772 12.2021L58.7076 12.2867C58.9864 13.08 59.1258 13.9622 59.1258 14.9335L59.1253 15.0381C59.1153 16.011 58.966 16.8906 58.6772 17.6773L58.6459 17.7612C58.3489 18.5401 57.9357 19.2062 57.4063 19.7602L57.3492 19.8191C56.8125 20.3641 56.1691 20.7853 55.4192 21.0822L55.3385 21.1135C54.5827 21.4002 53.7436 21.5437 52.8215 21.5437L52.723 21.5431C51.8065 21.5329 50.9713 21.3791 50.2175 21.0822L50.1372 21.0499C49.3909 20.7441 48.7512 20.3141 48.2179 19.7602L48.1612 19.7004C47.6361 19.1384 47.2272 18.4642 46.9345 17.6773L46.9047 17.5955C46.6214 16.8015 46.4798 15.9142 46.4798 14.9335L46.4804 14.8298C46.4905 13.8648 46.6418 12.989 46.9345 12.2021L46.9663 12.1182C47.2673 11.3398 47.6845 10.6778 48.2179 10.1317L48.2754 10.0737C48.8164 9.53652 49.4636 9.11922 50.2175 8.82219C50.9982 8.51466 51.8662 8.36073 52.8215 8.36073ZM102.047 8.36073L102.14 8.3613C102.909 8.37085 103.62 8.49967 104.271 8.74746L104.346 8.77658C104.991 9.0332 105.549 9.39976 106.021 9.87607L106.073 9.92951C106.538 10.4143 106.903 11.0036 107.168 11.697L107.195 11.7718C107.451 12.473 107.579 13.2691 107.579 14.1602L107.579 14.2176C107.577 14.425 107.567 14.5993 107.548 14.7402L107.542 14.7813C107.52 14.9157 107.484 15.0225 107.435 15.1019L107.419 15.1273C107.367 15.2014 107.3 15.2553 107.217 15.289L107.189 15.2996C107.102 15.3299 106.996 15.345 106.869 15.345H98.9696L98.9749 15.4176C99.074 16.6945 99.4251 17.6348 100.028 18.2386L100.068 18.2775C100.678 18.867 101.479 19.1616 102.47 19.1616L102.549 19.1611C103.014 19.1553 103.418 19.0973 103.76 18.987L103.843 18.9599C104.17 18.8507 104.458 18.7309 104.707 18.6002L104.78 18.562C105.019 18.4356 105.232 18.3197 105.417 18.2137L105.458 18.1912C105.647 18.0898 105.83 18.039 106.009 18.039L106.046 18.0398C106.155 18.0443 106.25 18.069 106.333 18.1139L106.363 18.1313C106.441 18.1798 106.51 18.2447 106.569 18.3259L107.467 19.4484L107.406 19.5182C107.081 19.8866 106.719 20.1982 106.32 20.4524L106.235 20.5057C105.838 20.7513 105.424 20.9497 104.993 21.1009L104.887 21.1375C104.46 21.2803 104.026 21.3824 103.586 21.4439L103.456 21.4612C103.024 21.5162 102.604 21.5437 102.196 21.5437L102.101 21.5431C101.249 21.5329 100.454 21.3854 99.717 21.1009L99.6383 21.0699C98.9071 20.7756 98.2688 20.3494 97.7236 19.7913L97.6675 19.7331C97.1291 19.1657 96.7037 18.4702 96.3904 17.6462L96.3605 17.5659C96.0565 16.7322 95.9045 15.7715 95.9045 14.6841L95.9051 14.5873C95.9152 13.7502 96.0562 12.9615 96.3281 12.2208L96.3588 12.1388C96.6395 11.4041 97.0342 10.7621 97.543 10.2129L97.5999 10.1523C98.1164 9.61132 98.7412 9.18039 99.4741 8.85961C100.234 8.52718 101.092 8.36073 102.047 8.36073ZM115.428 8.36073L115.52 8.36121C116.437 8.37082 117.243 8.52459 117.938 8.82219L118.018 8.85692C118.704 9.16265 119.324 9.59175 119.875 10.1442L119.066 11.2666L119.035 11.3046C118.954 11.4032 118.875 11.482 118.798 11.5411L118.779 11.5549C118.692 11.6124 118.572 11.6409 118.418 11.6409L118.381 11.64C118.236 11.6332 118.095 11.5857 117.957 11.4975L117.911 11.4685C117.771 11.3802 117.608 11.2818 117.421 11.1732L117.368 11.1434C117.172 11.0348 116.942 10.9366 116.68 10.8488L116.631 10.8333C116.354 10.7482 116.015 10.7054 115.614 10.7054L115.544 10.706C115.033 10.7141 114.583 10.8118 114.194 10.9986L114.139 11.0258C113.756 11.2197 113.436 11.4913 113.179 11.8405L113.141 11.8933C112.89 12.2488 112.701 12.6739 112.575 13.1687L112.555 13.2472C112.435 13.7475 112.375 14.3096 112.375 14.9335L112.376 15.0304C112.382 15.6731 112.455 16.2477 112.593 16.7544L112.613 16.8264C112.758 17.327 112.961 17.7499 113.222 18.0952L113.262 18.1462C113.528 18.4828 113.847 18.7402 114.219 18.9183L114.273 18.9432C114.649 19.1137 115.072 19.1989 115.54 19.1989L115.606 19.1985C116.066 19.1933 116.44 19.1332 116.73 19.0181L116.794 18.9921C117.069 18.8786 117.303 18.7541 117.496 18.6189L117.557 18.5757C117.739 18.4471 117.899 18.3285 118.038 18.2199L118.069 18.1966C118.214 18.0916 118.376 18.039 118.555 18.039L118.587 18.0396C118.82 18.0475 118.996 18.143 119.116 18.3259L120 19.4482V19.4485L119.936 19.5226C119.613 19.8891 119.265 20.1991 118.891 20.4524L118.811 20.5057C118.437 20.7513 118.051 20.9497 117.651 21.1009L117.56 21.1349C117.16 21.2791 116.749 21.382 116.325 21.4439L116.2 21.4612C115.785 21.5162 115.374 21.5437 114.967 21.5437L114.882 21.5431C114.124 21.5329 113.409 21.3854 112.736 21.1009L112.662 21.0688C111.995 20.775 111.412 20.3554 110.911 19.81L110.856 19.749C110.363 19.1952 109.97 18.5233 109.678 17.7335L109.648 17.6512C109.364 16.8522 109.223 15.9463 109.223 14.9335L109.223 14.8294C109.233 13.9296 109.368 13.0934 109.628 12.3206L109.657 12.2351C109.926 11.4688 110.313 10.803 110.818 10.2378L110.872 10.1776C111.386 9.62002 112.015 9.1808 112.761 8.85961C113.534 8.52718 114.422 8.36073 115.428 8.36073ZM32.0772 3.32202V11.0796H40.5244V3.32202H43.9009V21.3566H40.5244V13.4743H32.0772V21.3566H28.7009V3.32202H32.0772ZM68.1088 8.32331L68.1715 8.3238C68.7746 8.33318 69.277 8.47856 69.6786 8.75986L69.2799 11.0671L69.2741 11.0985C69.2471 11.2317 69.195 11.3273 69.118 11.3851L69.0966 11.4001C69.0159 11.4525 68.9109 11.4788 68.7815 11.4788L68.7541 11.4783C68.6323 11.4745 68.4712 11.4456 68.2707 11.3914L68.2318 11.3815C68.0207 11.33 67.747 11.3042 67.411 11.3042L67.3494 11.3047C66.7361 11.3158 66.2084 11.4922 65.7664 11.8343L65.7194 11.8714C65.283 12.2236 64.9124 12.7287 64.6077 13.3869V21.3566H61.5303V8.56035H63.3369L63.3775 8.56068C63.6714 8.56552 63.8781 8.62361 63.9972 8.73495L64.0166 8.75403C64.1304 8.87269 64.2069 9.06583 64.2464 9.33346L64.4333 10.88L64.4793 10.8016C64.9258 10.0489 65.4462 9.45137 66.0404 9.00929C66.6551 8.55209 67.3445 8.32331 68.1088 8.32331ZM52.8215 10.7179L52.7628 10.7183C51.7127 10.7313 50.9349 11.0951 50.4294 11.8093L50.3994 11.8524C49.9042 12.5781 49.6569 13.6133 49.6569 14.9585L49.6572 15.0373C49.6669 16.3705 49.9241 17.3898 50.4294 18.0952C50.9443 18.8144 51.7416 19.174 52.8215 19.174L52.8802 19.1736C53.9136 19.1606 54.6811 18.8034 55.1824 18.1014L55.2116 18.0597C55.703 17.3459 55.9487 16.3122 55.9487 14.9585L55.9485 14.8793C55.9388 13.5379 55.6834 12.5125 55.1824 11.8031L55.1543 11.764C54.6429 11.0666 53.8652 10.7179 52.8215 10.7179ZM102.109 10.5683L102.048 10.5687C101.18 10.5799 100.499 10.8335 100.004 11.3291C99.4969 11.8363 99.1729 12.5556 99.0317 13.4867H104.813L104.812 13.4072C104.805 13.0375 104.752 12.6879 104.651 12.3581L104.631 12.2962C104.523 11.9684 104.364 11.6793 104.152 11.4288L104.112 11.3825C103.895 11.1384 103.626 10.944 103.305 10.7991L103.254 10.7766C102.925 10.6378 102.543 10.5683 102.109 10.5683Z" fill="#28304D"/>
</svg>
