<svg width="98" height="50" viewBox="0 0 98 50" fill="none" xmlns="http://www.w3.org/2000/svg">
<path fill-rule="evenodd" clip-rule="evenodd" d="M28.4381 1.46442L40.5619 8.49913C43.927 10.4517 46 14.0602 46 17.9653V32.0347C46 35.9398 43.927 39.5483 40.5619 41.5009L28.4381 48.5356C25.073 50.4881 20.927 50.4881 17.5619 48.5356L5.43809 41.5009C2.07299 39.5483 0 35.9398 0 32.0347L0 17.9653C0 14.0602 2.07299 10.4517 5.43809 8.49913L17.5619 1.46442C20.927 -0.48814 25.073 -0.48814 28.4381 1.46442ZM23.017 8.38859C13.9371 8.38859 6.57629 15.7862 6.57629 24.9116C6.57629 30.4772 9.33675 35.575 13.8442 38.6256C14.5309 39.0903 15.4624 38.9076 15.9248 38.2175C16.3873 37.5274 16.2055 36.5912 15.5188 36.1264L15.4086 36.051C11.7853 33.5467 9.57431 29.4186 9.57431 24.9116C9.57431 17.5886 15.3716 11.6264 22.6054 11.4078L16.5538 17.4896C16.1664 17.879 15.9828 18.3955 16.0039 18.9056C16.0011 18.9453 15.9997 18.9854 15.9997 19.0259C15.9997 19.9652 16.7575 20.7267 17.6922 20.7267L24.5116 20.7261L16.076 29.2044C15.9097 29.3715 15.7809 29.5621 15.6902 29.766C15.5189 30.0318 15.4195 30.3488 15.4195 30.6891C15.4195 31.5706 16.0867 32.2955 16.9415 32.3808C17.2341 32.4559 17.5412 32.4593 17.8352 32.3911L23.7527 32.3897L18.3484 37.8212C17.6119 38.5613 17.6119 39.7614 18.3484 40.5015C18.6667 40.8215 19.0707 41.0032 19.4861 41.0464C19.5299 41.0599 19.5746 41.0715 19.6203 41.0812C20.7295 41.3155 21.8661 41.4345 23.017 41.4345C32.097 41.4345 39.4578 34.037 39.4578 24.9116C39.4578 19.3054 36.6568 14.1754 32.0954 11.1341C31.4056 10.6741 30.4753 10.8633 30.0176 11.5566C29.5599 12.2499 29.7482 13.1848 30.438 13.6448L30.5496 13.72C34.2163 16.2175 36.4597 20.3719 36.4597 24.9116C36.4597 32.2935 30.5686 38.2927 23.2535 38.4195L23.0856 38.4204L29.2215 32.2543C29.7125 31.7609 29.8761 31.0631 29.7125 30.4334L29.7009 30.3596C29.5482 29.578 28.8627 28.9882 28.0402 28.9882L21.6242 28.9882L29.9581 20.6135C30.6945 19.8734 30.6945 18.6734 29.9581 17.9332C29.8805 17.8553 29.7979 17.7855 29.7105 17.7247C29.416 17.4753 29.0357 17.325 28.6204 17.325L22.0513 17.3245L27.4269 11.9228C28.1634 11.1826 28.1634 9.98259 27.4269 9.24244C27.0727 8.88645 26.6126 8.70167 26.1487 8.68826C25.1236 8.48948 24.0764 8.38859 23.017 8.38859Z" fill="url(#paint0_linear)"/>
<path d="M54.676 19.101V15.474C54.676 14.4427 54.949 13.6887 55.495 13.212C56.0497 12.7353 56.7907 12.497 57.718 12.497C58.6453 12.497 59.3863 12.7353 59.941 13.212C60.4957 13.6887 60.773 14.4427 60.773 15.474V19.101C60.773 20.1323 60.4957 20.8863 59.941 21.363C59.3863 21.8397 58.6453 22.078 57.718 22.078C56.7907 22.078 56.0497 21.8397 55.495 21.363C54.949 20.8863 54.676 20.1323 54.676 19.101ZM56.366 19.101C56.366 20.0977 56.8167 20.596 57.718 20.596C58.628 20.596 59.083 20.0977 59.083 19.101V15.474C59.083 14.4773 58.628 13.979 57.718 13.979C56.8167 13.979 56.366 14.4773 56.366 15.474V19.101ZM62.2195 21.467V13.017C62.2195 12.8783 62.2758 12.757 62.3885 12.653C62.5098 12.549 62.6658 12.497 62.8565 12.497H65.4695C66.3621 12.497 67.0771 12.7353 67.6145 13.212C68.1518 13.68 68.4205 14.4167 68.4205 15.422V15.5C68.4205 16.514 68.1388 17.2593 67.5755 17.736C67.0208 18.2127 66.2841 18.451 65.3655 18.451H63.9095V21.467C63.9095 21.6317 63.8228 21.7617 63.6495 21.857C63.4848 21.9523 63.2898 22 63.0645 22C62.8305 22 62.6311 21.9523 62.4665 21.857C62.3018 21.7617 62.2195 21.6317 62.2195 21.467ZM63.9095 17.125H65.3655C65.7988 17.125 66.1325 16.9993 66.3665 16.748C66.6091 16.4967 66.7305 16.124 66.7305 15.63V15.474C66.7305 14.98 66.6091 14.6073 66.3665 14.356C66.1325 14.1047 65.7988 13.979 65.3655 13.979H63.9095V17.125ZM69.4558 21.467V13.03C69.4558 12.8653 69.5294 12.7353 69.6768 12.64C69.8241 12.5447 69.9974 12.497 70.1968 12.497H74.8248C74.9981 12.497 75.1281 12.5707 75.2148 12.718C75.3101 12.8653 75.3578 13.0343 75.3578 13.225C75.3578 13.433 75.3101 13.6107 75.2148 13.758C75.1194 13.9053 74.9894 13.979 74.8248 13.979H71.1458V16.579H73.1218C73.2864 16.579 73.4164 16.6483 73.5118 16.787C73.6071 16.917 73.6548 17.073 73.6548 17.255C73.6548 17.4197 73.6071 17.5713 73.5118 17.71C73.4251 17.84 73.2951 17.905 73.1218 17.905H71.1458V20.518H74.8248C74.9894 20.518 75.1194 20.5917 75.2148 20.739C75.3101 20.8863 75.3578 21.064 75.3578 21.272C75.3578 21.4627 75.3101 21.6317 75.2148 21.779C75.1281 21.9263 74.9981 22 74.8248 22H70.1968C69.9974 22 69.8241 21.9523 69.6768 21.857C69.5294 21.7617 69.4558 21.6317 69.4558 21.467ZM76.3493 21.467V13.03C76.3493 12.8567 76.4317 12.7267 76.5963 12.64C76.761 12.5447 76.9603 12.497 77.1943 12.497C77.5063 12.497 77.7447 12.5533 77.9093 12.666C78.074 12.7787 78.256 13.0213 78.4553 13.394L80.9643 18.243V13.017C80.9643 12.8437 81.0467 12.7137 81.2113 12.627C81.376 12.5403 81.5753 12.497 81.8093 12.497C82.0433 12.497 82.2427 12.5403 82.4073 12.627C82.572 12.7137 82.6543 12.8437 82.6543 13.017V21.467C82.6543 21.6317 82.5677 21.7617 82.3943 21.857C82.2297 21.9523 82.0347 22 81.8093 22C81.35 22 81.025 21.8223 80.8343 21.467L78.0393 16.241V21.467C78.0393 21.6317 77.9527 21.7617 77.7793 21.857C77.6147 21.9523 77.4197 22 77.1943 22C76.9603 22 76.761 21.9523 76.5963 21.857C76.4317 21.7617 76.3493 21.6317 76.3493 21.467ZM54.312 36.505C54.312 36.3057 54.3857 36.1063 54.533 35.907C54.689 35.699 54.8623 35.595 55.053 35.595C55.1657 35.595 55.2913 35.647 55.43 35.751C55.5773 35.855 55.716 35.972 55.846 36.102C55.9847 36.2233 56.1797 36.336 56.431 36.44C56.6823 36.544 56.9597 36.596 57.263 36.596C57.679 36.596 58.0257 36.5007 58.303 36.31C58.5803 36.1193 58.719 35.8377 58.719 35.465C58.719 35.205 58.641 34.9753 58.485 34.776C58.3377 34.568 58.1383 34.399 57.887 34.269C57.6443 34.1303 57.3757 34.0003 57.081 33.879C56.7863 33.749 56.4873 33.606 56.184 33.45C55.8893 33.294 55.6163 33.1207 55.365 32.93C55.1223 32.7307 54.923 32.4707 54.767 32.15C54.6197 31.8207 54.546 31.448 54.546 31.032C54.546 30.5727 54.637 30.1697 54.819 29.823C55.0097 29.4677 55.261 29.1947 55.573 29.004C55.885 28.8047 56.2187 28.6617 56.574 28.575C56.9293 28.4797 57.3063 28.432 57.705 28.432C57.9303 28.432 58.1687 28.4493 58.42 28.484C58.6713 28.51 58.9357 28.5577 59.213 28.627C59.499 28.6963 59.7287 28.8047 59.902 28.952C60.084 29.0993 60.175 29.2727 60.175 29.472C60.175 29.6627 60.1143 29.862 59.993 30.07C59.8717 30.2693 59.707 30.369 59.499 30.369C59.421 30.369 59.2087 30.2867 58.862 30.122C58.5153 29.9573 58.1297 29.875 57.705 29.875C57.237 29.875 56.873 29.966 56.613 30.148C56.3617 30.3213 56.236 30.564 56.236 30.876C56.236 31.1273 56.34 31.3483 56.548 31.539C56.756 31.721 57.0117 31.8727 57.315 31.994C57.627 32.1067 57.9607 32.254 58.316 32.436C58.68 32.6093 59.0137 32.8 59.317 33.008C59.629 33.216 59.889 33.5193 60.097 33.918C60.305 34.308 60.409 34.7673 60.409 35.296C60.409 36.1973 60.123 36.895 59.551 37.389C58.9877 37.8743 58.2423 38.117 57.315 38.117C56.4917 38.117 55.7853 37.948 55.196 37.61C54.6067 37.272 54.312 36.9037 54.312 36.505ZM61.468 35.101V31.474C61.468 30.4427 61.741 29.6887 62.287 29.212C62.8417 28.7353 63.5827 28.497 64.51 28.497C65.4373 28.497 66.1783 28.7353 66.733 29.212C67.2877 29.6887 67.565 30.4427 67.565 31.474V35.101C67.565 36.1323 67.2877 36.8863 66.733 37.363C66.1783 37.8397 65.4373 38.078 64.51 38.078C63.5827 38.078 62.8417 37.8397 62.287 37.363C61.741 36.8863 61.468 36.1323 61.468 35.101ZM63.158 35.101C63.158 36.0977 63.6087 36.596 64.51 36.596C65.42 36.596 65.875 36.0977 65.875 35.101V31.474C65.875 30.4773 65.42 29.979 64.51 29.979C63.6087 29.979 63.158 30.4773 63.158 31.474V35.101ZM68.9724 35.101V29.017C68.9724 28.8437 69.0548 28.7137 69.2194 28.627C69.3841 28.5403 69.5834 28.497 69.8174 28.497C70.0514 28.497 70.2508 28.5403 70.4154 28.627C70.5801 28.7137 70.6624 28.8437 70.6624 29.017V35.101C70.6624 36.0977 71.1391 36.596 72.0924 36.596C73.0458 36.596 73.5224 36.0977 73.5224 35.101V29.017C73.5224 28.8437 73.6048 28.7137 73.7694 28.627C73.9341 28.5403 74.1334 28.497 74.3674 28.497C74.6014 28.497 74.8008 28.5403 74.9654 28.627C75.1301 28.7137 75.2124 28.8437 75.2124 29.017V35.101C75.2124 36.1237 74.9264 36.8777 74.3544 37.363C73.7911 37.8397 73.0371 38.078 72.0924 38.078C71.1478 38.078 70.3894 37.8397 69.8174 37.363C69.2541 36.8863 68.9724 36.1323 68.9724 35.101ZM76.7302 37.467V29.017C76.7302 28.8783 76.7822 28.757 76.8862 28.653C76.9902 28.549 77.1202 28.497 77.2762 28.497H79.8502C81.9042 28.497 82.9312 29.4027 82.9312 31.214C82.9312 31.9247 82.7752 32.4967 82.4632 32.93C82.1599 33.3633 81.7482 33.658 81.2282 33.814L82.9312 36.973C82.9745 37.025 82.9962 37.0943 82.9962 37.181C82.9962 37.3977 82.8835 37.6013 82.6582 37.792C82.4329 37.974 82.1945 38.065 81.9432 38.065C81.6919 38.065 81.4969 37.9307 81.3582 37.662L79.5122 34.074H78.4202V37.467C78.4202 37.6317 78.3379 37.7617 78.1732 37.857C78.0085 37.9523 77.8092 38 77.5752 38C77.3499 38 77.1505 37.9523 76.9772 37.857C76.8125 37.7617 76.7302 37.6317 76.7302 37.467ZM78.4202 32.748H79.8502C80.7775 32.748 81.2412 32.2887 81.2412 31.37C81.2412 30.4427 80.7775 29.979 79.8502 29.979H78.4202V32.748ZM84.0533 35.101V31.474C84.0533 30.4513 84.3306 29.7017 84.8853 29.225C85.4399 28.7397 86.1636 28.497 87.0563 28.497C87.9663 28.497 88.7073 28.7223 89.2793 29.173C89.8599 29.6237 90.1503 30.2217 90.1503 30.967C90.1503 31.2877 90.0853 31.5087 89.9553 31.63C89.8253 31.7427 89.6086 31.799 89.3053 31.799C88.7506 31.799 88.4689 31.6213 88.4603 31.266C88.4516 31.1533 88.4386 31.058 88.4213 30.98C88.4126 30.8933 88.3779 30.785 88.3173 30.655C88.2653 30.5163 88.1959 30.4037 88.1093 30.317C88.0226 30.2217 87.8926 30.1437 87.7193 30.083C87.5459 30.0137 87.3423 29.979 87.1083 29.979C86.1983 29.979 85.7433 30.4773 85.7433 31.474V35.101C85.7433 36.0977 86.2069 36.596 87.1343 36.596C87.4116 36.596 87.6413 36.5527 87.8233 36.466C88.0139 36.3793 88.1483 36.258 88.2263 36.102C88.3129 35.9373 88.3693 35.7943 88.3953 35.673C88.4299 35.543 88.4516 35.387 88.4603 35.205C88.4863 34.8497 88.7636 34.672 89.2923 34.672C89.5956 34.672 89.8123 34.7327 89.9423 34.854C90.0809 34.9667 90.1503 35.1833 90.1503 35.504C90.1503 36.284 89.8599 36.908 89.2793 37.376C88.7073 37.844 87.9619 38.078 87.0433 38.078C86.1506 38.078 85.4269 37.8397 84.8723 37.363C84.3263 36.8777 84.0533 36.1237 84.0533 35.101ZM91.2917 37.467V29.03C91.2917 28.8653 91.3654 28.7353 91.5127 28.64C91.6601 28.5447 91.8334 28.497 92.0327 28.497H96.6607C96.8341 28.497 96.9641 28.5707 97.0507 28.718C97.1461 28.8653 97.1937 29.0343 97.1937 29.225C97.1937 29.433 97.1461 29.6107 97.0507 29.758C96.9554 29.9053 96.8254 29.979 96.6607 29.979H92.9817V32.579H94.9577C95.1224 32.579 95.2524 32.6483 95.3477 32.787C95.4431 32.917 95.4907 33.073 95.4907 33.255C95.4907 33.4197 95.4431 33.5713 95.3477 33.71C95.2611 33.84 95.1311 33.905 94.9577 33.905H92.9817V36.518H96.6607C96.8254 36.518 96.9554 36.5917 97.0507 36.739C97.1461 36.8863 97.1937 37.064 97.1937 37.272C97.1937 37.4627 97.1461 37.6317 97.0507 37.779C96.9641 37.9263 96.8341 38 96.6607 38H92.0327C91.8334 38 91.6601 37.9523 91.5127 37.857C91.3654 37.7617 91.2917 37.6317 91.2917 37.467Z" fill="#0C3455"/>
<defs>
<linearGradient id="paint0_linear" x1="7.34606" y1="38.0484" x2="39.6904" y2="11.512" gradientUnits="userSpaceOnUse">
<stop stop-color="#EF4123"/>
<stop offset="1" stop-color="#F7941E"/>
</linearGradient>
</defs>
</svg>
