<svg width="46" height="50" viewBox="0 0 46 50" fill="none" xmlns="http://www.w3.org/2000/svg">
<path fill-rule="evenodd" clip-rule="evenodd" d="M28.4381 1.46442L40.5619 8.49913C43.927 10.4517 46 14.0602 46 17.9653V32.0347C46 35.9398 43.927 39.5483 40.5619 41.5009L28.4381 48.5356C25.073 50.4881 20.927 50.4881 17.5619 48.5356L5.43809 41.5009C2.07299 39.5483 0 35.9398 0 32.0347L0 17.9653C0 14.0602 2.07299 10.4517 5.43809 8.49913L17.5619 1.46442C20.927 -0.48814 25.073 -0.48814 28.4381 1.46442ZM23.017 8.38859C13.9371 8.38859 6.57629 15.7862 6.57629 24.9116C6.57629 30.4772 9.33675 35.575 13.8442 38.6256C14.5309 39.0903 15.4624 38.9076 15.9248 38.2175C16.3873 37.5274 16.2055 36.5912 15.5188 36.1264L15.4086 36.051C11.7853 33.5467 9.57431 29.4186 9.57431 24.9116C9.57431 17.5886 15.3716 11.6264 22.6054 11.4078L16.5538 17.4896C16.1664 17.879 15.9828 18.3955 16.0039 18.9056C16.0011 18.9453 15.9997 18.9854 15.9997 19.0259C15.9997 19.9652 16.7575 20.7267 17.6922 20.7267L24.5116 20.7261L16.076 29.2044C15.9097 29.3715 15.7809 29.5621 15.6902 29.766C15.5189 30.0318 15.4195 30.3488 15.4195 30.6891C15.4195 31.5706 16.0867 32.2955 16.9415 32.3808C17.2341 32.4559 17.5412 32.4593 17.8352 32.3911L23.7527 32.3897L18.3484 37.8212C17.6119 38.5613 17.6119 39.7614 18.3484 40.5015C18.6667 40.8215 19.0707 41.0032 19.4861 41.0464C19.5299 41.0599 19.5746 41.0715 19.6203 41.0812C20.7295 41.3155 21.8661 41.4345 23.017 41.4345C32.097 41.4345 39.4578 34.037 39.4578 24.9116C39.4578 19.3054 36.6568 14.1754 32.0954 11.1341C31.4056 10.6741 30.4753 10.8633 30.0176 11.5566C29.5599 12.2499 29.7482 13.1848 30.438 13.6448L30.5496 13.72C34.2163 16.2175 36.4597 20.3719 36.4597 24.9116C36.4597 32.2935 30.5686 38.2927 23.2535 38.4195L23.0856 38.4204L29.2215 32.2543C29.7125 31.7609 29.8761 31.0631 29.7125 30.4334L29.7009 30.3596C29.5482 29.578 28.8627 28.9882 28.0402 28.9882L21.6242 28.9882L29.9581 20.6135C30.6945 19.8734 30.6945 18.6734 29.9581 17.9332C29.8805 17.8553 29.7979 17.7855 29.7105 17.7247C29.416 17.4753 29.0357 17.325 28.6204 17.325L22.0513 17.3245L27.4269 11.9228C28.1634 11.1826 28.1634 9.98259 27.4269 9.24244C27.0727 8.88645 26.6126 8.70167 26.1487 8.68826C25.1236 8.48948 24.0764 8.38859 23.017 8.38859Z" fill="url(#paint0_linear)"/>
<defs>
<linearGradient id="paint0_linear" x1="7.34606" y1="38.0484" x2="39.6904" y2="11.512" gradientUnits="userSpaceOnUse">
<stop stop-color="#EF4123"/>
<stop offset="1" stop-color="#F7941E"/>
</linearGradient>
</defs>
</svg>
