<svg width="44" height="27" viewBox="0 0 44 27" fill="none" xmlns="http://www.w3.org/2000/svg">
<path d="M0.676 7.101V3.474C0.676 2.44267 0.949 1.68867 1.495 1.212C2.04967 0.735333 2.79067 0.497 3.718 0.497C4.64533 0.497 5.38633 0.735333 5.941 1.212C6.49567 1.68867 6.773 2.44267 6.773 3.474V7.101C6.773 8.13233 6.49567 8.88633 5.941 9.363C5.38633 9.83967 4.64533 10.078 3.718 10.078C2.79067 10.078 2.04967 9.83967 1.495 9.363C0.949 8.88633 0.676 8.13233 0.676 7.101ZM2.366 7.101C2.366 8.09767 2.81667 8.596 3.718 8.596C4.628 8.596 5.083 8.09767 5.083 7.101V3.474C5.083 2.47733 4.628 1.979 3.718 1.979C2.81667 1.979 2.366 2.47733 2.366 3.474V7.101ZM8.21945 9.467V1.017C8.21945 0.878333 8.27579 0.757 8.38845 0.652999C8.50979 0.549 8.66579 0.497 8.85645 0.497H11.4695C12.3621 0.497 13.0771 0.735333 13.6145 1.212C14.1518 1.68 14.4205 2.41667 14.4205 3.422V3.5C14.4205 4.514 14.1388 5.25933 13.5755 5.736C13.0208 6.21267 12.2841 6.451 11.3655 6.451H9.90945V9.467C9.90945 9.63167 9.82279 9.76167 9.64945 9.857C9.48479 9.95233 9.28979 10 9.06445 10C8.83045 10 8.63112 9.95233 8.46645 9.857C8.30179 9.76167 8.21945 9.63167 8.21945 9.467ZM9.90945 5.125H11.3655C11.7988 5.125 12.1325 4.99933 12.3665 4.748C12.6091 4.49667 12.7305 4.124 12.7305 3.63V3.474C12.7305 2.98 12.6091 2.60733 12.3665 2.356C12.1325 2.10467 11.7988 1.979 11.3655 1.979H9.90945V5.125ZM15.4558 9.467V1.03C15.4558 0.865333 15.5294 0.735333 15.6768 0.64C15.8241 0.544666 15.9974 0.497 16.1968 0.497H20.8248C20.9981 0.497 21.1281 0.570666 21.2148 0.717999C21.3101 0.865333 21.3578 1.03433 21.3578 1.225C21.3578 1.433 21.3101 1.61067 21.2148 1.758C21.1194 1.90533 20.9894 1.979 20.8248 1.979H17.1458V4.579H19.1218C19.2864 4.579 19.4164 4.64833 19.5118 4.787C19.6071 4.917 19.6548 5.073 19.6548 5.255C19.6548 5.41967 19.6071 5.57133 19.5118 5.71C19.4251 5.84 19.2951 5.905 19.1218 5.905H17.1458V8.518H20.8248C20.9894 8.518 21.1194 8.59167 21.2148 8.739C21.3101 8.88633 21.3578 9.064 21.3578 9.272C21.3578 9.46267 21.3101 9.63167 21.2148 9.779C21.1281 9.92633 20.9981 10 20.8248 10H16.1968C15.9974 10 15.8241 9.95233 15.6768 9.857C15.5294 9.76167 15.4558 9.63167 15.4558 9.467ZM22.3493 9.467V1.03C22.3493 0.856666 22.4317 0.726666 22.5963 0.64C22.761 0.544666 22.9603 0.497 23.1943 0.497C23.5063 0.497 23.7447 0.553333 23.9093 0.665999C24.074 0.778666 24.256 1.02133 24.4553 1.394L26.9643 6.243V1.017C26.9643 0.843666 27.0467 0.713666 27.2113 0.627C27.376 0.540333 27.5753 0.497 27.8093 0.497C28.0433 0.497 28.2427 0.540333 28.4073 0.627C28.572 0.713666 28.6543 0.843666 28.6543 1.017V9.467C28.6543 9.63167 28.5677 9.76167 28.3943 9.857C28.2297 9.95233 28.0347 10 27.8093 10C27.35 10 27.025 9.82233 26.8343 9.467L24.0393 4.241V9.467C24.0393 9.63167 23.9527 9.76167 23.7793 9.857C23.6147 9.95233 23.4197 10 23.1943 10C22.9603 10 22.761 9.95233 22.5963 9.857C22.4317 9.76167 22.3493 9.63167 22.3493 9.467ZM0.312 24.505C0.312 24.3057 0.385667 24.1063 0.533 23.907C0.689 23.699 0.862333 23.595 1.053 23.595C1.16567 23.595 1.29133 23.647 1.43 23.751C1.57733 23.855 1.716 23.972 1.846 24.102C1.98467 24.2233 2.17967 24.336 2.431 24.44C2.68233 24.544 2.95967 24.596 3.263 24.596C3.679 24.596 4.02567 24.5007 4.303 24.31C4.58033 24.1193 4.719 23.8377 4.719 23.465C4.719 23.205 4.641 22.9753 4.485 22.776C4.33767 22.568 4.13833 22.399 3.887 22.269C3.64433 22.1303 3.37567 22.0003 3.081 21.879C2.78633 21.749 2.48733 21.606 2.184 21.45C1.88933 21.294 1.61633 21.1207 1.365 20.93C1.12233 20.7307 0.923 20.4707 0.767 20.15C0.619667 19.8207 0.546 19.448 0.546 19.032C0.546 18.5727 0.637 18.1697 0.819 17.823C1.00967 17.4677 1.261 17.1947 1.573 17.004C1.885 16.8047 2.21867 16.6617 2.574 16.575C2.92933 16.4797 3.30633 16.432 3.705 16.432C3.93033 16.432 4.16867 16.4493 4.42 16.484C4.67133 16.51 4.93567 16.5577 5.213 16.627C5.499 16.6963 5.72867 16.8047 5.902 16.952C6.084 17.0993 6.175 17.2727 6.175 17.472C6.175 17.6627 6.11433 17.862 5.993 18.07C5.87167 18.2693 5.707 18.369 5.499 18.369C5.421 18.369 5.20867 18.2867 4.862 18.122C4.51533 17.9573 4.12967 17.875 3.705 17.875C3.237 17.875 2.873 17.966 2.613 18.148C2.36167 18.3213 2.236 18.564 2.236 18.876C2.236 19.1273 2.34 19.3483 2.548 19.539C2.756 19.721 3.01167 19.8727 3.315 19.994C3.627 20.1067 3.96067 20.254 4.316 20.436C4.68 20.6093 5.01367 20.8 5.317 21.008C5.629 21.216 5.889 21.5193 6.097 21.918C6.305 22.308 6.409 22.7673 6.409 23.296C6.409 24.1973 6.123 24.895 5.551 25.389C4.98767 25.8743 4.24233 26.117 3.315 26.117C2.49167 26.117 1.78533 25.948 1.196 25.61C0.606667 25.272 0.312 24.9037 0.312 24.505ZM7.46799 23.101V19.474C7.46799 18.4427 7.74099 17.6887 8.28699 17.212C8.84166 16.7353 9.58266 16.497 10.51 16.497C11.4373 16.497 12.1783 16.7353 12.733 17.212C13.2877 17.6887 13.565 18.4427 13.565 19.474V23.101C13.565 24.1323 13.2877 24.8863 12.733 25.363C12.1783 25.8397 11.4373 26.078 10.51 26.078C9.58266 26.078 8.84166 25.8397 8.28699 25.363C7.74099 24.8863 7.46799 24.1323 7.46799 23.101ZM9.15799 23.101C9.15799 24.0977 9.60866 24.596 10.51 24.596C11.42 24.596 11.875 24.0977 11.875 23.101V19.474C11.875 18.4773 11.42 17.979 10.51 17.979C9.60866 17.979 9.15799 18.4773 9.15799 19.474V23.101ZM14.9724 23.101V17.017C14.9724 16.8437 15.0548 16.7137 15.2194 16.627C15.3841 16.5403 15.5834 16.497 15.8174 16.497C16.0514 16.497 16.2508 16.5403 16.4154 16.627C16.5801 16.7137 16.6624 16.8437 16.6624 17.017V23.101C16.6624 24.0977 17.1391 24.596 18.0924 24.596C19.0458 24.596 19.5224 24.0977 19.5224 23.101V17.017C19.5224 16.8437 19.6048 16.7137 19.7694 16.627C19.9341 16.5403 20.1334 16.497 20.3674 16.497C20.6014 16.497 20.8008 16.5403 20.9654 16.627C21.1301 16.7137 21.2124 16.8437 21.2124 17.017V23.101C21.2124 24.1237 20.9264 24.8777 20.3544 25.363C19.7911 25.8397 19.0371 26.078 18.0924 26.078C17.1478 26.078 16.3894 25.8397 15.8174 25.363C15.2541 24.8863 14.9724 24.1323 14.9724 23.101ZM22.7302 25.467V17.017C22.7302 16.8783 22.7822 16.757 22.8862 16.653C22.9902 16.549 23.1202 16.497 23.2762 16.497H25.8502C27.9042 16.497 28.9312 17.4027 28.9312 19.214C28.9312 19.9247 28.7752 20.4967 28.4632 20.93C28.1599 21.3633 27.7482 21.658 27.2282 21.814L28.9312 24.973C28.9745 25.025 28.9962 25.0943 28.9962 25.181C28.9962 25.3977 28.8835 25.6013 28.6582 25.792C28.4329 25.974 28.1945 26.065 27.9432 26.065C27.6919 26.065 27.4969 25.9307 27.3582 25.662L25.5122 22.074H24.4202V25.467C24.4202 25.6317 24.3379 25.7617 24.1732 25.857C24.0085 25.9523 23.8092 26 23.5752 26C23.3499 26 23.1505 25.9523 22.9772 25.857C22.8125 25.7617 22.7302 25.6317 22.7302 25.467ZM24.4202 20.748H25.8502C26.7775 20.748 27.2412 20.2887 27.2412 19.37C27.2412 18.4427 26.7775 17.979 25.8502 17.979H24.4202V20.748ZM30.0533 23.101V19.474C30.0533 18.4513 30.3306 17.7017 30.8853 17.225C31.4399 16.7397 32.1636 16.497 33.0563 16.497C33.9663 16.497 34.7073 16.7223 35.2793 17.173C35.8599 17.6237 36.1503 18.2217 36.1503 18.967C36.1503 19.2877 36.0853 19.5087 35.9553 19.63C35.8253 19.7427 35.6086 19.799 35.3053 19.799C34.7506 19.799 34.4689 19.6213 34.4603 19.266C34.4516 19.1533 34.4386 19.058 34.4213 18.98C34.4126 18.8933 34.3779 18.785 34.3173 18.655C34.2653 18.5163 34.1959 18.4037 34.1093 18.317C34.0226 18.2217 33.8926 18.1437 33.7193 18.083C33.5459 18.0137 33.3423 17.979 33.1083 17.979C32.1983 17.979 31.7433 18.4773 31.7433 19.474V23.101C31.7433 24.0977 32.2069 24.596 33.1343 24.596C33.4116 24.596 33.6413 24.5527 33.8233 24.466C34.0139 24.3793 34.1483 24.258 34.2263 24.102C34.3129 23.9373 34.3693 23.7943 34.3953 23.673C34.4299 23.543 34.4516 23.387 34.4603 23.205C34.4863 22.8497 34.7636 22.672 35.2923 22.672C35.5956 22.672 35.8123 22.7327 35.9423 22.854C36.0809 22.9667 36.1503 23.1833 36.1503 23.504C36.1503 24.284 35.8599 24.908 35.2793 25.376C34.7073 25.844 33.9619 26.078 33.0433 26.078C32.1506 26.078 31.4269 25.8397 30.8723 25.363C30.3263 24.8777 30.0533 24.1237 30.0533 23.101ZM37.2917 25.467V17.03C37.2917 16.8653 37.3654 16.7353 37.5127 16.64C37.6601 16.5447 37.8334 16.497 38.0327 16.497H42.6607C42.8341 16.497 42.9641 16.5707 43.0507 16.718C43.1461 16.8653 43.1937 17.0343 43.1937 17.225C43.1937 17.433 43.1461 17.6107 43.0507 17.758C42.9554 17.9053 42.8254 17.979 42.6607 17.979H38.9817V20.579H40.9577C41.1224 20.579 41.2524 20.6483 41.3477 20.787C41.4431 20.917 41.4907 21.073 41.4907 21.255C41.4907 21.4197 41.4431 21.5713 41.3477 21.71C41.2611 21.84 41.1311 21.905 40.9577 21.905H38.9817V24.518H42.6607C42.8254 24.518 42.9554 24.5917 43.0507 24.739C43.1461 24.8863 43.1937 25.064 43.1937 25.272C43.1937 25.4627 43.1461 25.6317 43.0507 25.779C42.9641 25.9263 42.8341 26 42.6607 26H38.0327C37.8334 26 37.6601 25.9523 37.5127 25.857C37.3654 25.7617 37.2917 25.6317 37.2917 25.467Z" fill="#0C3455"/>
</svg>
