<svg width="120" height="20" viewBox="0 0 120 20" fill="none" xmlns="http://www.w3.org/2000/svg">
<path fill-rule="evenodd" clip-rule="evenodd" d="M43.2931 19.5336V12.1067L44.7818 12.0833C45.0541 12.0692 45.326 12.1183 45.5762 12.2269C45.7785 12.3461 45.9482 12.5135 46.0702 12.7142L50.0757 18.8026C50.2134 19.0176 50.3998 19.1971 50.6198 19.3267C50.8607 19.4555 51.1312 19.5188 51.4042 19.5102H54.5986L49.8387 12.5006C49.5422 12.0533 49.1471 11.6799 48.6838 11.4091C49.314 11.2152 49.9132 10.9319 50.4629 10.5679C50.9653 10.2355 51.4096 9.8228 51.7781 9.34622C52.1324 8.88652 52.4077 8.37098 52.5925 7.82079C52.7848 7.23601 52.8806 6.62385 52.8763 6.00829C52.8871 5.24529 52.7476 4.48763 52.4657 3.77855C52.1838 3.10207 51.7361 2.50745 51.1639 2.04949C50.4886 1.52693 49.7158 1.14449 48.8908 0.92461C47.8021 0.636805 46.6787 0.501993 45.5528 0.524057H39.7548V19.5336H43.2931ZM45.4994 9.56987H43.293V3.25115H45.5528C46.8591 3.25115 47.8293 3.5104 48.4635 4.02889C49.1143 4.57657 49.4683 5.39948 49.4182 6.24862C49.4237 6.70461 49.3433 7.15756 49.1812 7.58379C49.0264 7.98312 48.7807 8.34085 48.4635 8.62857C48.1099 8.94287 47.6934 9.17839 47.2418 9.31952C46.6784 9.49676 46.0899 9.58131 45.4994 9.56987Z" fill="#121A20"/>
<path fill-rule="evenodd" clip-rule="evenodd" d="M60.4467 2.904C60.5618 2.65739 60.6211 2.38841 60.6203 2.11625C60.6197 1.83887 60.5606 1.56474 60.4467 1.31181C60.3403 1.06184 60.1861 0.83507 59.9927 0.644221C59.7996 0.457064 59.5732 0.307632 59.3252 0.203613C59.0667 0.0935285 58.7883 0.0378526 58.5074 0.0400542C58.234 0.0381704 57.9633 0.0939004 57.7129 0.203613C57.2201 0.413766 56.8286 0.807696 56.6214 1.30179C56.5106 1.55887 56.4549 1.83632 56.4579 2.11625C56.4553 2.38752 56.5111 2.65618 56.6214 2.904C56.8346 3.39092 57.2247 3.77868 57.7129 3.98883C57.9633 4.09855 58.234 4.15428 58.5074 4.15239C58.7883 4.15459 59.0667 4.09892 59.3252 3.98883C59.5732 3.88482 59.7996 3.73538 59.9927 3.54823C60.1833 3.36401 60.3373 3.14543 60.4467 2.904ZM60.1329 19.5336V6.045H56.8851V19.5336H60.1329Z" fill="#121A20"/>
<path d="M68.2308 19.7439C67.0658 19.7439 66.1646 19.4101 65.5337 18.7425C64.9029 18.0749 64.5891 17.177 64.5891 16.0221V8.47836H63.2205C63.0532 8.48051 62.8912 8.41975 62.7666 8.30813C62.6325 8.17191 62.5632 7.98477 62.5763 7.79408V6.50564L64.746 6.15182L65.4302 2.48009C65.4589 2.31908 65.5456 2.17418 65.6739 2.07286C65.8135 1.97254 65.9828 1.922 66.1546 1.92933H67.8235V6.16517H71.3718V8.47836H67.8369V15.7884C67.8107 16.15 67.9228 16.5079 68.1507 16.7898C68.3637 17.0285 68.6722 17.1595 68.9918 17.147C69.1638 17.1505 69.3352 17.1257 69.4992 17.0735C69.6199 17.0301 69.738 16.98 69.853 16.9233C69.9532 16.8699 70.0433 16.8199 70.1234 16.7698C70.1945 16.7253 70.2765 16.701 70.3604 16.6997C70.4449 16.6963 70.5283 16.7209 70.5974 16.7698C70.6717 16.8337 70.7379 16.9066 70.7943 16.9868L71.7657 18.5489C71.2839 18.9471 70.7313 19.2507 70.1367 19.4435C69.5214 19.644 68.878 19.7454 68.2308 19.7439V19.7439Z" fill="#121A20"/>
<path d="M83.4484 8.89894C83.366 9.00693 83.2708 9.10445 83.1647 9.18934C83.0455 9.26538 82.9053 9.30161 82.7642 9.29282C82.5906 9.2909 82.4213 9.23873 82.2768 9.14261C82.1199 9.04247 81.943 8.92898 81.7127 8.80882C81.4632 8.67133 81.2004 8.5595 80.9283 8.47502C80.5647 8.36595 80.1862 8.31525 79.8067 8.32482C79.2905 8.31378 78.7783 8.41872 78.308 8.63191C77.883 8.83481 77.5149 9.13986 77.2365 9.5198C76.9348 9.94117 76.7183 10.4174 76.599 10.9217C76.4517 11.5303 76.3811 12.1549 76.3887 12.781C76.3806 13.4279 76.4569 14.0731 76.6157 14.7003C76.7465 15.2091 76.9731 15.6882 77.2833 16.1122C77.5597 16.4823 77.9216 16.7801 78.3381 16.9801C78.7736 17.1831 79.2495 17.2847 79.73 17.2772C80.1565 17.2917 80.582 17.2272 80.985 17.0869C81.2699 16.979 81.5411 16.8379 81.7928 16.6663C82.0131 16.5128 82.2034 16.3726 82.3669 16.2457C82.5209 16.1215 82.7132 16.0542 82.911 16.0555C83.1473 16.0439 83.372 16.1582 83.5018 16.3559L84.4498 17.5242C84.1077 17.9271 83.7137 18.2829 83.2782 18.5823C82.8697 18.8553 82.4305 19.0794 81.9697 19.2499C81.5185 19.4229 81.0494 19.5449 80.5711 19.6137C80.0969 19.6827 79.6184 19.7173 79.1392 19.7172C78.3311 19.7235 77.5303 19.5645 76.7859 19.2499C76.0524 18.9431 75.395 18.4794 74.8599 17.8913C74.2875 17.2532 73.8453 16.5094 73.5581 15.7017C73.2233 14.7546 73.0606 13.7553 73.0775 12.7509C73.0678 11.822 73.2087 10.8977 73.4947 10.0138C73.7604 9.20443 74.1873 8.45727 74.7498 7.81745C75.3187 7.18813 76.0197 6.6923 76.8026 6.36545C77.6947 5.99941 78.6524 5.81992 79.6165 5.83805C80.5227 5.81976 81.4232 5.98555 82.2635 6.32539C83.0285 6.65354 83.7223 7.12744 84.3063 7.72065L83.4484 8.89894Z" fill="#121A20"/>
<path d="M86.516 19.5336V0H89.7638V7.50702C90.2759 7.01542 90.8615 6.60662 91.4995 6.29535C92.1945 5.97411 92.9539 5.81653 93.7193 5.83471C94.3915 5.8226 95.0589 5.95107 95.6786 6.2119C96.2287 6.44734 96.7166 6.80728 97.1039 7.26335C97.4997 7.73748 97.795 8.28714 97.9718 8.87891C98.1755 9.54962 98.2757 10.2475 98.2689 10.9484V19.5336H95.0211V10.9484C95.0675 10.265 94.8699 9.58728 94.4636 9.0358C94.023 8.56397 93.3916 8.31829 92.7479 8.36821C92.1986 8.3653 91.6568 8.49589 91.1691 8.74873C90.6543 9.02086 90.1848 9.37104 89.7772 9.78683V19.5336H86.516Z" fill="#121A20"/>
<path fill-rule="evenodd" clip-rule="evenodd" d="M105.235 2.90401C105.35 2.65739 105.41 2.38841 105.409 2.11625C105.408 1.84498 105.351 1.57679 105.242 1.3285C105.135 1.07854 104.981 0.851761 104.788 0.660912C104.595 0.473755 104.368 0.324323 104.12 0.220304C103.862 0.11022 103.583 0.0545438 103.302 0.0567454C103.029 0.0548616 102.758 0.110592 102.508 0.220304C102.015 0.430457 101.624 0.824387 101.417 1.31849C101.306 1.57556 101.25 1.85301 101.253 2.13294C101.25 2.40421 101.306 2.67287 101.417 2.9207C101.63 3.40761 102.02 3.79537 102.508 4.00552C102.758 4.1086 103.026 4.15862 103.296 4.15239C103.577 4.1546 103.855 4.09892 104.114 3.98884C104.362 3.88482 104.588 3.73538 104.781 3.54823C104.972 3.36401 105.126 3.14544 105.235 2.90401ZM104.921 19.5336V6.045H101.674V19.5336H104.921Z" fill="#121A20"/>
<path fill-rule="evenodd" clip-rule="evenodd" d="M116.494 6.24528C115.747 5.9663 114.955 5.82713 114.157 5.83471C113.224 5.81239 112.296 5.9852 111.434 6.34208C110.664 6.6711 109.97 7.15645 109.398 7.76738C108.833 8.38026 108.398 9.09979 108.116 9.88363C107.813 10.7157 107.662 11.5952 107.669 12.4805C107.648 13.5443 107.821 14.6029 108.179 15.6049C108.487 16.4477 108.967 17.2172 109.588 17.8646C110.179 18.4726 110.897 18.9432 111.691 19.2432C112.526 19.5613 113.414 19.7198 114.308 19.7105C114.798 19.7098 115.288 19.6752 115.773 19.607C116.279 19.5368 116.777 19.4149 117.258 19.2432C117.749 19.075 118.218 18.851 118.657 18.5756C119.111 18.2842 119.519 17.9277 119.869 17.5175L118.921 16.3325C118.855 16.2402 118.769 16.1638 118.67 16.1089C118.567 16.0558 118.452 16.0294 118.337 16.0321C118.116 16.0366 117.9 16.1 117.712 16.2157C117.495 16.3392 117.248 16.4727 116.961 16.6229C116.64 16.7871 116.305 16.9233 115.96 17.0302C115.518 17.1617 115.059 17.2237 114.598 17.2137C113.642 17.2567 112.711 16.9056 112.021 16.2424C111.371 15.5948 111 14.5779 110.906 13.1915H119.251C119.376 13.1953 119.501 13.1749 119.618 13.1314C119.715 13.093 119.796 13.0237 119.849 12.9345C119.915 12.8176 119.954 12.6878 119.965 12.554C119.991 12.3514 120.002 12.1473 119.999 11.9431C120.015 11.0582 119.868 10.1779 119.565 9.34622C119.297 8.62989 118.88 7.97817 118.343 7.43359C117.82 6.9087 117.189 6.50332 116.494 6.24528ZM112.001 8.97238C112.602 8.41288 113.405 8.12342 114.224 8.17127L114.228 8.16459C114.659 8.1564 115.088 8.23943 115.486 8.40826C115.831 8.56063 116.136 8.78883 116.381 9.07585C116.621 9.36409 116.8 9.69789 116.908 10.0572C117.023 10.4426 117.081 10.8431 117.078 11.2455H110.976C111.064 10.3973 111.424 9.60006 112.001 8.97238Z" fill="#121A20"/>
<path fill-rule="evenodd" clip-rule="evenodd" d="M2.69372 0.403891H30.1149V0.417242C31.5929 0.417201 32.7942 1.60957 32.8052 3.08759V16.8366C32.8016 18.3203 31.5987 19.5218 30.1149 19.5236H2.69372C1.20862 19.5236 0.00368053 18.3216 0 16.8366V3.07424C0.0128257 1.59568 1.21509 0.403835 2.69372 0.403891ZM30.9827 3.08759C30.9791 2.61089 30.5916 2.22639 30.1149 2.2264H2.69372C2.46443 2.22552 2.24418 2.31575 2.08143 2.47726C1.91867 2.63876 1.82674 2.85831 1.82585 3.08759V16.8299C1.82674 17.0592 1.91867 17.2787 2.08143 17.4402C2.24418 17.6017 2.46443 17.692 2.69372 17.6911H30.1149C30.589 17.6911 30.9754 17.3106 30.9827 16.8366V3.08759Z" fill="url(#paint0_linear)"/>
<path d="M22.3942 14.6202H17.7645C17.2005 14.5885 16.7593 14.122 16.7593 13.557C16.7593 12.9921 17.2005 12.5255 17.7645 12.4939H22.3942C22.7883 12.4718 23.1622 12.6695 23.3659 13.0075C23.5695 13.3456 23.5695 13.7685 23.3659 14.1066C23.1622 14.4446 22.7883 14.6423 22.3942 14.6202V14.6202Z" fill="url(#paint1_linear)"/>
<path d="M11.2989 14.0694L15.5982 9.77014C15.7277 9.64443 15.8008 9.47163 15.8008 9.29115C15.8008 9.11067 15.7277 8.93787 15.5982 8.81215L11.2989 4.51289C11.1732 4.38339 11.0004 4.31032 10.8199 4.31032C10.6394 4.31032 10.4666 4.38339 10.3409 4.51289L9.5465 5.30398C9.41595 5.42981 9.3422 5.60333 9.3422 5.78465C9.3422 5.96596 9.41595 6.13948 9.5465 6.26531L12.0933 8.81215C12.2228 8.93787 12.2959 9.11067 12.2959 9.29115C12.2959 9.47163 12.2228 9.64443 12.0933 9.77014L9.5465 12.317C9.41595 12.4428 9.3422 12.6163 9.3422 12.7977C9.3422 12.979 9.41595 13.1525 9.5465 13.2783L10.3476 14.0694C10.4731 14.1968 10.6444 14.2686 10.8233 14.2686C11.0021 14.2686 11.1734 14.1968 11.2989 14.0694Z" fill="url(#paint2_linear)"/>
<defs>
<linearGradient id="paint0_linear" x1="16.1556" y1="27.9341" x2="32.0001" y2="1.1315" gradientUnits="userSpaceOnUse">
<stop stop-color="#90B424"/>
<stop offset="0.01" stop-color="#90B424"/>
<stop offset="1" stop-color="#56A980"/>
</linearGradient>
<linearGradient id="paint1_linear" x1="21.2192" y1="15.5842" x2="22.165" y2="11.8473" gradientUnits="userSpaceOnUse">
<stop stop-color="#003050"/>
<stop offset="1" stop-color="#00172D"/>
</linearGradient>
<linearGradient id="paint2_linear" x1="10.7653" y1="16.8999" x2="18.066" y2="13.1201" gradientUnits="userSpaceOnUse">
<stop stop-color="#D6480D"/>
<stop offset="1" stop-color="#E59200"/>
</linearGradient>
</defs>
</svg>
